<?xml version="1.0" encoding="utf-8"?>
<!-- Generator: Adobe Illustrator 21.1.0, SVG Export Plug-In . SVG Version: 6.00 Build 0)  -->
<svg version="1.1" id="Layer_1" xmlns="http://www.w3.org/2000/svg" xmlns:xlink="http://www.w3.org/1999/xlink" x="0px" y="0px"
	 viewBox="0 0 700.6 119.5" style="enable-background:new 0 0 700.6 119.5;" xml:space="preserve">
<style type="text/css">
	.st0{fill:#0DA1ED;}
	.st1{fill:#0D153B;}
</style>
<title>topresume</title>
<path class="st0" d="M213.4,0h31.3c15,0,24.3,2.7,29.6,6.8c8,6.2,11.6,15.6,11.6,26.1c0.1,6.1-1.5,12.1-4.8,17.3
	c-3,4.6-7.3,8.1-12.4,10.2l19.8,35.2h-25.2l-24.9-46.2h4c6.2,0,11.5-0.5,14.7-2.6c3-1.9,5.4-6.5,5.4-11.8c0.1-4.4-2-8.7-5.7-11.2
	c-3-1.7-6.5-2.6-9.9-2.6h-9.1v74.2h-24.4V0z"/>
<path class="st0" d="M306.1,67.2c0.9,7.6,8.1,12.7,16.5,12.7c6.9,0,10.5-3,13.1-6.7h22c-3,7.4-8.1,13.7-14.6,18.4
	c-6,4.3-13.1,6.5-20.4,6.5c-21,0-38-17-38-38c0-20,15.8-38.5,37.6-38.5c10.2-0.2,20.1,4,27.1,11.4c9,9.7,11.8,21.2,10.1,34.4
	L306.1,67.2z M338.4,50.9c-0.5-3.4-4.9-11.4-16-11.4s-15.5,8-16,11.4H338.4z"/>
<path class="st0" d="M394.1,44.1c-0.1-1.5-0.4-5.4-6.7-5.4c-4.5,0-6.1,2.8-6.1,4.8c0,3.2,5.3,5.4,11,7.1c12.1,3.4,25.1,7,25.1,22.5
	c0,15.8-13.3,25.1-29.2,25.1c-10.9,0-27.3-4.9-29.2-23.8h21.3c0.9,6.6,7.2,6.6,8.1,6.6c3.6,0,7.5-2.1,7.5-5.6c0-4.9-5.3-5.6-19-10.9
	c-9.3-3-17.1-9-17.1-18.8c0-14.9,12.9-24.3,27.8-24.3c9.4,0,25.7,3.8,27.5,22.6L394.1,44.1z"/>
<path class="st0" d="M486.1,95.7h-20V88c-2.5,3.5-7,10.1-19.9,10.1c-24.3,0-26.8-19.7-26.8-29.3V23.9h21.5v39.2
	c0,7.9,1.7,14.9,11.3,14.9c10.7,0,12.4-7.6,12.4-15V24h21.5V95.7z"/>
<path class="st0" d="M493.3,23.9h20v7.6c1.1-1.9,2.6-3.6,4.4-5c3.1-2.6,8.1-5,15.6-5c6.2-0.1,12.2,2.3,16.4,6.9
	c1.7,1.7,3.2,3.7,4.3,5.9c1.4-2.3,3.2-4.4,5.2-6.3c4.8-4.4,11.1-6.7,17.6-6.6c5,0,13.1,1.2,18.9,7.2c6.7,7.1,7.8,11.9,7.8,27.8v39.2
	h-21.5V57.5c0-3,0-6.8-1.4-10.1s-4-5.8-9.6-5.8c-6,0-8.9,2.7-10.3,6s-1.5,6.8-1.5,8.9v39.2h-21.5v-39c0.1-3-0.3-6.1-1.3-8.9
	c-1.4-3.4-4-6.1-9.4-6.1c-6.1,0-9,2.8-10.6,6.3s-1.5,7.4-1.5,9.6v38.1h-21.5V23.9z"/>
<path class="st0" d="M627.7,67.2c0.9,7.6,8.1,12.7,16.5,12.7c6.8,0,10.5-3,13.1-6.7h22c-3,7.4-8.1,13.7-14.6,18.4
	c-6,4.3-13.1,6.5-20.5,6.5c-21,0-38-17-38-38c0-20,15.8-38.5,37.6-38.5c10.2-0.2,20.1,3.9,27.1,11.4c9,9.7,11.8,21.2,10.1,34.4
	H627.7z M660,50.9c-0.5-3.4-4.9-11.4-16-11.4s-15.5,8-16,11.4H660z"/>
<path class="st0" d="M675,15.1c0-2.2,0.6-4.4,1.7-6.4c1.1-2,2.7-3.6,4.7-4.7c4-2.3,8.8-2.3,12.8,0c2,1.1,3.6,2.7,4.7,4.7
	c2.3,3.9,2.3,8.8,0.1,12.7c-3.4,6.2-11.2,8.4-17.4,5C677.5,24.1,675,19.8,675,15.1z M677.4,15.1c0,5.7,4.7,10.4,10.4,10.4
	c5.7,0,10.4-4.7,10.4-10.4c0-1.8-0.5-3.6-1.4-5.2c-2.9-5-9.2-6.6-14.2-3.8C679.4,8,677.4,11.4,677.4,15.1z M693,12.1
	c0.1,1.7-0.8,3.3-2.4,4l4,6.8h-4.3l-3-5.8h-0.8v5.8h-3.9V7.3h4.5c1.6-0.1,3.2,0.3,4.5,1.2C692.6,9.4,693.1,10.8,693,12.1L693,12.1z
	 M686.4,14.3h0.6c0.6,0.1,1.2-0.1,1.6-0.5c0.4-0.5,0.5-1,0.5-1.6c0.1-0.6-0.1-1.1-0.5-1.6c-0.5-0.4-1.1-0.5-1.7-0.5h-0.5L686.4,14.3
	z"/>
<path class="st1" d="M18.9,21.5H0V0.1h62v21.4H43.2v74.1H18.9V21.5z"/>
<path class="st1" d="M50.1,59.6c0-17.4,12.5-38,38.6-38s38.6,20.5,38.6,38.1s-12.5,38.1-38.6,38.1S50.1,77.2,50.1,59.6L50.1,59.6z
	 M71.5,59.9c0,10.3,7.9,17.9,17.2,17.9s17.2-7.6,17.2-18.1S98,41.7,88.7,41.7s-17.2,7.6-17.2,18.1V59.9z"/>
<path class="st1" d="M131,24h20.1v7.9c5.6-6.7,14-10.5,22.7-10.3c25.4,0,35,22.3,35,39c0,20.7-14.5,37.6-34.9,37.6
	c-12.9,0-19-6.2-21.6-8.9v30.3H131V24z M187.4,59.8c0-8.4-6.2-18.2-17.9-18.2c-4.9,0-9.5,1.9-12.9,5.4c-3.3,3.5-5.1,8.2-5,13
	c-0.1,9.9,7.8,18,17.6,18.1c0.1,0,0.2,0,0.3,0C180.7,78,187.4,68.9,187.4,59.8L187.4,59.8z"/>
</svg>
