<svg width="871" height="580" viewBox="0 0 871 580" fill="none" xmlns="http://www.w3.org/2000/svg">
<path d="M1 28C1 12.536 13.536 0 29 0H843C858.464 0 871 12.536 871 28V552C871 567.464 858.464 580 843 580H29C13.536 580 1 567.464 1 552V28Z" fill="#DBDBDB"/>
<line x1="0.996491" y1="63.0526" x2="870.996" y2="60" stroke="black" stroke-width="2"/>
<ellipse cx="52.5" cy="33" rx="15.5" ry="15" fill="#2D9137"/>
<ellipse cx="96.5" cy="33" rx="15.5" ry="15" fill="#ABAD33"/>
<ellipse cx="140.5" cy="33" rx="15.5" ry="15" fill="#912D2D"/>
<circle cx="141" cy="140" r="35" fill="#C4C4C4"/>
<path d="M191 225C191 218.434 189.707 211.932 187.194 205.866C184.681 199.8 180.998 194.288 176.355 189.645C171.712 185.002 166.2 181.319 160.134 178.806C154.068 176.293 147.566 175 141 175C134.434 175 127.932 176.293 121.866 178.806C115.8 181.319 110.288 185.002 105.645 189.645C101.002 194.288 97.3188 199.8 94.806 205.866C92.2933 211.932 91 218.434 91 225L141 225H191Z" fill="#C4C4C4"/>
<rect x="259" y="120" width="535" height="14" rx="2" fill="#C4C4C4"/>
<rect x="259" y="120" width="535" height="14" rx="2" fill="#C4C4C4"/>
<rect x="259" y="176" width="535" height="14" rx="2" fill="#C4C4C4"/>
<rect x="259" y="232" width="535" height="14" rx="2" fill="#C4C4C4"/>
<rect x="47" y="288" width="747" height="14" rx="2" fill="#C4C4C4"/>
<rect x="47" y="344" width="747" height="14" rx="2" fill="#C4C4C4"/>
<rect x="47" y="400" width="747" height="15" rx="2" fill="#C4C4C4"/>
<path d="M327.922 487.086C327.922 484.602 328.406 482.367 329.375 480.383C330.359 478.398 331.719 476.867 333.453 475.789C335.203 474.711 337.195 474.172 339.43 474.172C342.883 474.172 345.672 475.367 347.797 477.758C349.938 480.148 351.008 483.328 351.008 487.297V487.602C351.008 490.07 350.531 492.289 349.578 494.258C348.641 496.211 347.289 497.734 345.523 498.828C343.773 499.922 341.758 500.469 339.477 500.469C336.039 500.469 333.25 499.273 331.109 496.883C328.984 494.492 327.922 491.328 327.922 487.391V487.086ZM332.281 487.602C332.281 490.414 332.93 492.672 334.227 494.375C335.539 496.078 337.289 496.93 339.477 496.93C341.68 496.93 343.43 496.07 344.727 494.352C346.023 492.617 346.672 490.195 346.672 487.086C346.672 484.305 346.008 482.055 344.68 480.336C343.367 478.602 341.617 477.734 339.43 477.734C337.289 477.734 335.562 478.586 334.25 480.289C332.938 481.992 332.281 484.43 332.281 487.602ZM360.547 474.641L360.688 477.828C362.625 475.391 365.156 474.172 368.281 474.172C373.641 474.172 376.344 477.195 376.391 483.242V500H372.055V483.219C372.039 481.391 371.617 480.039 370.789 479.164C369.977 478.289 368.703 477.852 366.969 477.852C365.562 477.852 364.328 478.227 363.266 478.977C362.203 479.727 361.375 480.711 360.781 481.93V500H356.445V474.641H360.547ZM387.641 500H383.305V464H387.641V500ZM399.312 500H394.977V474.641H399.312V500ZM394.625 467.914C394.625 467.211 394.836 466.617 395.258 466.133C395.695 465.648 396.336 465.406 397.18 465.406C398.023 465.406 398.664 465.648 399.102 466.133C399.539 466.617 399.758 467.211 399.758 467.914C399.758 468.617 399.539 469.203 399.102 469.672C398.664 470.141 398.023 470.375 397.18 470.375C396.336 470.375 395.695 470.141 395.258 469.672C394.836 469.203 394.625 468.617 394.625 467.914ZM410.375 474.641L410.516 477.828C412.453 475.391 414.984 474.172 418.109 474.172C423.469 474.172 426.172 477.195 426.219 483.242V500H421.883V483.219C421.867 481.391 421.445 480.039 420.617 479.164C419.805 478.289 418.531 477.852 416.797 477.852C415.391 477.852 414.156 478.227 413.094 478.977C412.031 479.727 411.203 480.711 410.609 481.93V500H406.273V474.641H410.375ZM443.281 500.469C439.844 500.469 437.047 499.344 434.891 497.094C432.734 494.828 431.656 491.805 431.656 488.023V487.227C431.656 484.711 432.133 482.469 433.086 480.5C434.055 478.516 435.398 476.969 437.117 475.859C438.852 474.734 440.727 474.172 442.742 474.172C446.039 474.172 448.602 475.258 450.43 477.43C452.258 479.602 453.172 482.711 453.172 486.758V488.562H435.992C436.055 491.062 436.781 493.086 438.172 494.633C439.578 496.164 441.359 496.93 443.516 496.93C445.047 496.93 446.344 496.617 447.406 495.992C448.469 495.367 449.398 494.539 450.195 493.508L452.844 495.57C450.719 498.836 447.531 500.469 443.281 500.469ZM442.742 477.734C440.992 477.734 439.523 478.375 438.336 479.656C437.148 480.922 436.414 482.703 436.133 485H448.836V484.672C448.711 482.469 448.117 480.766 447.055 479.562C445.992 478.344 444.555 477.734 442.742 477.734ZM480.289 496.93C481.836 496.93 483.188 496.461 484.344 495.523C485.5 494.586 486.141 493.414 486.266 492.008H490.367C490.289 493.461 489.789 494.844 488.867 496.156C487.945 497.469 486.711 498.516 485.164 499.297C483.633 500.078 482.008 500.469 480.289 500.469C476.836 500.469 474.086 499.32 472.039 497.023C470.008 494.711 468.992 491.555 468.992 487.555V486.828C468.992 484.359 469.445 482.164 470.352 480.242C471.258 478.32 472.555 476.828 474.242 475.766C475.945 474.703 477.953 474.172 480.266 474.172C483.109 474.172 485.469 475.023 487.344 476.727C489.234 478.43 490.242 480.641 490.367 483.359H486.266C486.141 481.719 485.516 480.375 484.391 479.328C483.281 478.266 481.906 477.734 480.266 477.734C478.062 477.734 476.352 478.531 475.133 480.125C473.93 481.703 473.328 483.992 473.328 486.992V487.812C473.328 490.734 473.93 492.984 475.133 494.562C476.336 496.141 478.055 496.93 480.289 496.93ZM503.609 494.117L509.891 474.641H514.32L505.227 500H501.922L492.734 474.641H497.164L503.609 494.117Z" fill="#838383"/>
</svg>
