<?xml version="1.0" encoding="utf-8"?>
<!-- Generator: Adobe Illustrator 24.0.1, SVG Export Plug-In . SVG Version: 6.00 Build 0)  -->
<svg version="1.1" id="Слой_1" xmlns="http://www.w3.org/2000/svg" xmlns:xlink="http://www.w3.org/1999/xlink" x="0px" y="0px"
	 viewBox="0 0 66 70" style="enable-background:new 0 0 66 70;" xml:space="preserve">
<style type="text/css">
	.st0{fill:#FF5555;}
</style>
<g>
</g>
<g>
</g>
<g>
</g>
<g>
</g>
<g>
</g>
<g>
</g>
<g>
</g>
<g>
</g>
<g>
</g>
<g>
</g>
<g>
</g>
<g>
</g>
<g>
</g>
<g>
</g>
<g>
	<path class="st0" d="M47.4,15.3c-1.2-1.2-3.1-1.2-4.3,0l-4.4,4.4V3c0-1.7-1.4-3-3-3c-1.7,0-3,1.4-3,3v16.6l-4.4-4.4
		c-1.2-1.2-3.1-1.2-4.3,0c-1.2,1.2-1.2,3.1,0,4.3l9.6,9.6c0.6,0.6,1.4,0.9,2.1,0.9c0.8,0,1.6-0.3,2.1-0.9l9.6-9.6
		C48.6,18.4,48.6,16.5,47.4,15.3z"/>
	<g>
		<path d="M44.3,46.3H27c-1.2,0-2.3-0.7-2.8-1.9l-4.8-11.7h-3.9c-1.7,0-3-1.4-3-3s1.4-3,3-3h5.9c1.2,0,2.3,0.7,2.8,1.9L29,40.3h13.3
			l4.8-11.7c0.6-1.5,2.4-2.3,4-1.6c1.5,0.6,2.3,2.4,1.6,4l-5.6,13.5C46.6,45.6,45.5,46.3,44.3,46.3z"/>
		<path d="M28.2,56.6c-2.8,0-4.1-3.6-1.9-5.4c2.1-1.7,5.4,0.1,4.9,2.9C30.9,55.5,29.7,56.6,28.2,56.6z"/>
		<path d="M43.1,56.6c-1.7,0-3-1.4-3-3c0-1.7,1.4-3,3-3c1.7,0,3,1.4,3,3C46.2,55.2,44.8,56.6,43.1,56.6z"/>
	</g>
	<path class="st0" d="M35.7,70c-4.1,0-7.9-1.6-10.8-4.5c-1.2-1.2-1.2-3.1,0-4.3c1.2-1.2,3.1-1.2,4.3,0c1.8,1.8,4.1,2.7,6.6,2.7
		c2.5,0,4.8-1,6.6-2.7c1.2-1.2,3.1-1.2,4.3,0c1.2,1.2,1.2,3.1,0,4.3C43.6,68.4,39.8,70,35.7,70z"/>
	<g>
	</g>
</g>
</svg>
