<svg width="69" height="70" viewBox="0 0 69 70" fill="none" xmlns="http://www.w3.org/2000/svg">
<path d="M66.5229 42.4L64.0229 41C64.4229 39 64.6229 37 64.6229 35C64.6229 33 64.4229 31 64.0229 29L66.4229 27.6C67.1229 27.2 67.7229 26.5 67.9229 25.6C68.1229 24.8 68.0229 23.9 67.6229 23.2L61.0229 11.8C60.6229 11.1 59.9229 10.5 59.0229 10.3C58.2229 10.1 57.3229 10.2 56.6229 10.6L54.3229 12C51.3229 9.3 47.7229 7.3 43.9229 6V3.2C43.9229 1.4 42.5229 0 40.7229 0H27.5229C25.7229 0 24.3229 1.4 24.3229 3.2V6C20.5229 7.3 16.9229 9.4 13.9229 12L11.5229 10.6C10.8229 10.2 9.92286 10.1 9.12286 10.3C8.32286 10.5 7.62286 11.1 7.12286 11.8L0.422862 23.2C0.022862 23.9 -0.077138 24.8 0.122862 25.6C0.322862 26.4 0.922862 27.1 1.62286 27.6L4.02286 29C3.62286 31 3.42286 33 3.42286 35C3.42286 37 3.62286 39 4.02286 41L1.62286 42.4C0.122862 43.3 -0.477138 45.3 0.422862 46.8L7.02286 58.2C7.92286 59.7 9.92286 60.3 11.4229 59.4L13.8229 58C16.8229 60.7 20.4229 62.7 24.2229 64V66.8C24.2229 68.6 25.6229 70 27.4229 70H40.6229C42.4229 70 43.8229 68.6 43.8229 66.8V64C47.6229 62.7 51.2229 60.6 54.2229 58L56.6229 59.4C58.1229 60.3 60.1229 59.8 61.0229 58.2L67.6229 46.8C68.5229 45.3 68.0229 43.3 66.5229 42.4ZM65.9229 45.8L59.3229 57.2C59.0229 57.8 58.3229 57.9 57.7229 57.6L54.6229 55.8C54.2229 55.6 53.7229 55.6 53.4229 55.9C50.3229 58.9 46.5229 61 42.5229 62.3C42.1229 62.4 41.8229 62.8 41.8229 63.3V66.8C41.8229 67.4 41.3229 68 40.6229 68H27.5229C26.9229 68 26.3229 67.5 26.3229 66.8V63.3C26.3229 62.8 26.0229 62.5 25.6229 62.3C21.6229 61.1 17.8229 58.9 14.7229 56C14.5229 55.8 14.3229 55.7 14.0229 55.7C13.8229 55.7 13.6229 55.7 13.5229 55.8L10.4229 57.6C9.82286 57.9 9.12286 57.7 8.82286 57.2L2.22286 45.8C1.92286 45.2 2.12286 44.5 2.62286 44.2L5.72286 42.4C6.12286 42.2 6.32286 41.7 6.22286 41.3C5.72286 39.2 5.52286 37.1 5.52286 35C5.52286 32.9 5.72286 30.8 6.22286 28.7C6.32286 28.3 6.12286 27.8 5.72286 27.6L2.62286 25.8C2.32286 25.6 2.12286 25.4 2.12286 25.1C2.02286 24.8 2.12286 24.5 2.22286 24.2L8.82286 12.8C9.02286 12.5 9.22286 12.3 9.52286 12.3C9.82286 12.2 10.1229 12.3 10.4229 12.4L13.5229 14.2C13.9229 14.4 14.4229 14.4 14.7229 14.1C17.8229 11.2 21.6229 9 25.6229 7.8C26.0229 7.7 26.3229 7.3 26.3229 6.8V3.2C26.3229 2.6 26.8229 2 27.5229 2H40.7229C41.3229 2 41.9229 2.5 41.9229 3.2V6.7C41.9229 7.2 42.2229 7.5 42.6229 7.7C46.6229 8.9 50.4229 11.1 53.5229 14C53.8229 14.3 54.3229 14.4 54.7229 14.1L57.8229 12.3C58.1229 12.1 58.4229 12.1 58.7229 12.2C59.0229 12.3 59.3229 12.5 59.4229 12.7L66.0229 24.1C66.2229 24.4 66.2229 24.7 66.1229 25C66.0229 25.3 65.8229 25.6 65.6229 25.7L62.5229 27.5C62.1229 27.7 61.9229 28.2 62.0229 28.6C62.5229 30.7 62.7229 32.8 62.7229 34.9C62.7229 37 62.5229 39.1 62.0229 41.2C61.9229 41.6 62.1229 42.1 62.5229 42.3L65.6229 44.1C66.0229 44.5 66.2229 45.2 65.9229 45.8Z" fill="black"/>
<path d="M34.0229 14.2C22.6229 14.2 13.2229 23.5 13.2229 35C13.2229 46.5 22.5229 55.8 34.0229 55.8C45.4229 55.8 54.8229 46.5 54.8229 35C54.8229 23.5 45.5229 14.2 34.0229 14.2ZM34.0229 53.7C23.7229 53.7 15.3229 45.3 15.3229 35C15.3229 24.7 23.7229 16.3 34.0229 16.3C44.3229 16.3 52.7229 24.7 52.7229 35C52.7229 45.3 44.3229 53.7 34.0229 53.7Z" fill="black"/>
<path d="M37.9229 29.6H34.1229C33.5229 29.6 33.1229 30.1 33.1229 30.6V39.4C33.1229 40 33.6229 40.4 34.1229 40.4C34.7229 40.4 35.1229 39.9 35.1229 39.4V37.1H37.9229C40.0229 37.1 41.7229 35.4 41.7229 33.3C41.7229 31.2 39.9229 29.6 37.9229 29.6ZM37.9229 35.1H35.1229V31.7H37.9229C38.8229 31.7 39.6229 32.5 39.6229 33.4C39.6229 34.3 38.8229 35.1 37.9229 35.1Z" fill="black"/>
<path d="M28.4229 30.3C28.2229 29.9 27.9229 29.6 27.4229 29.6H26.3229C25.9229 29.6 25.5229 29.9 25.3229 30.3L22.1229 39C21.9229 39.5 22.2229 40.1 22.7229 40.3C23.2229 40.5 23.8229 40.2 24.0229 39.7L24.6229 38.2H29.2229L29.8229 39.7C30.0229 40.1 30.3229 40.4 30.8229 40.4C30.9229 40.4 31.0229 40.4 31.2229 40.3C31.7229 40.1 32.0229 39.5 31.8229 39L28.4229 30.3ZM25.4229 36.2L26.9229 32.1L28.4229 36.2H25.4229Z" fill="black"/>
<path d="M43.9229 29.6C43.3229 29.6 42.9229 30.1 42.9229 30.6V39.4C42.9229 40 43.4229 40.4 43.9229 40.4C44.5229 40.4 44.9229 39.9 44.9229 39.4V30.6C44.9229 30 44.5229 29.6 43.9229 29.6Z" fill="black"/>
<path d="M41.4229 12C42.1229 12.2 42.8229 12.5 43.5229 12.8C43.6229 12.9 43.8229 12.9 43.9229 12.9C44.3229 12.9 44.7229 12.7 44.8229 12.3C45.0229 11.8 44.8229 11.2 44.3229 11C43.6229 10.7 42.8229 10.4 42.0229 10.1C41.5229 9.9 40.9229 10.2 40.7229 10.8C40.5229 11.2 40.8229 11.8 41.4229 12Z" fill="#FF5555"/>
<path d="M12.8229 46.6C12.5229 46.1 11.9229 45.9 11.4229 46.2C10.9229 46.5 10.7229 47.1 11.0229 47.6C11.4229 48.4 11.9229 49.1 12.4229 49.9C12.6229 50.2 12.9229 50.3 13.2229 50.3C13.4229 50.3 13.6229 50.2 13.8229 50.1C14.3229 49.8 14.4229 49.1 14.1229 48.7C13.6229 48 13.2229 47.3 12.8229 46.6Z" fill="#FF5555"/>
<path d="M31.9229 59.1C26.4229 58.6 21.2229 56.2 17.2229 52.4C16.8229 52 16.1229 52 15.7229 52.4C15.3229 52.8 15.3229 53.5 15.7229 53.9C20.0229 58.1 25.7229 60.7 31.7229 61.2H31.8229C32.3229 61.2 32.8229 60.8 32.8229 60.3C32.9229 59.6 32.5229 59.1 31.9229 59.1Z" fill="#FF5555"/>
<path d="M48.8229 13.3C48.3229 13 47.7229 13.1 47.4229 13.6C47.1229 14.1 47.2229 14.7 47.7229 15C52.5229 18.3 55.9229 23.1 57.4229 28.7C57.5229 29.2 57.9229 29.5 58.4229 29.5C58.5229 29.5 58.6229 29.5 58.7229 29.5C59.2229 29.4 59.6229 28.8 59.4229 28.2C57.7229 22.1 54.0229 16.9 48.8229 13.3Z" fill="#FF5555"/>
</svg>
