<svg width="77" height="78" viewBox="0 0 77 78" fill="none" xmlns="http://www.w3.org/2000/svg">
<g clip-path="url(#clip0)" filter="url(#filter0_d)">
<path d="M70.5229 42.4L68.0229 41C68.4229 39 68.6229 37 68.6229 35C68.6229 33 68.4229 31 68.0229 29L70.4229 27.6C71.1229 27.2 71.7229 26.5 71.9229 25.6C72.1229 24.8 72.0229 23.9 71.6229 23.2L65.0229 11.8C64.6229 11.1 63.9229 10.5 63.0229 10.3C62.2229 10.1 61.3229 10.2 60.6229 10.6L58.3229 12C55.3229 9.3 51.7229 7.3 47.9229 6V3.2C47.9229 1.4 46.5229 0 44.7229 0H31.5229C29.7229 0 28.3229 1.4 28.3229 3.2V6C24.5229 7.3 20.9229 9.4 17.9229 12L15.5229 10.6C14.8229 10.2 13.9229 10.1 13.1229 10.3C12.3229 10.5 11.6229 11.1 11.1229 11.8L4.42286 23.2C4.02286 23.9 3.92286 24.8 4.12286 25.6C4.32286 26.4 4.92286 27.1 5.62286 27.6L8.02286 29C7.62286 31 7.42286 33 7.42286 35C7.42286 37 7.62286 39 8.02286 41L5.62286 42.4C4.12286 43.3 3.52286 45.3 4.42286 46.8L11.0229 58.2C11.9229 59.7 13.9229 60.3 15.4229 59.4L17.8229 58C20.8229 60.7 24.4229 62.7 28.2229 64V66.8C28.2229 68.6 29.6229 70 31.4229 70H44.6229C46.4229 70 47.8229 68.6 47.8229 66.8V64C51.6229 62.7 55.2229 60.6 58.2229 58L60.6229 59.4C62.1229 60.3 64.1229 59.8 65.0229 58.2L71.6229 46.8C72.5229 45.3 72.0229 43.3 70.5229 42.4ZM69.9229 45.8L63.3229 57.2C63.0229 57.8 62.3229 57.9 61.7229 57.6L58.6229 55.8C58.2229 55.6 57.7229 55.6 57.4229 55.9C54.3229 58.9 50.5229 61 46.5229 62.3C46.1229 62.4 45.8229 62.8 45.8229 63.3V66.8C45.8229 67.4 45.3229 68 44.6229 68H31.5229C30.9229 68 30.3229 67.5 30.3229 66.8V63.3C30.3229 62.8 30.0229 62.5 29.6229 62.3C25.6229 61.1 21.8229 58.9 18.7229 56C18.5229 55.8 18.3229 55.7 18.0229 55.7C17.8229 55.7 17.6229 55.7 17.5229 55.8L14.4229 57.6C13.8229 57.9 13.1229 57.7 12.8229 57.2L6.22286 45.8C5.92286 45.2 6.12286 44.5 6.62286 44.2L9.72286 42.4C10.1229 42.2 10.3229 41.7 10.2229 41.3C9.72286 39.2 9.52286 37.1 9.52286 35C9.52286 32.9 9.72286 30.8 10.2229 28.7C10.3229 28.3 10.1229 27.8 9.72286 27.6L6.62286 25.8C6.32286 25.6 6.12286 25.4 6.12286 25.1C6.02286 24.8 6.12286 24.5 6.22286 24.2L12.8229 12.8C13.0229 12.5 13.2229 12.3 13.5229 12.3C13.8229 12.2 14.1229 12.3 14.4229 12.4L17.5229 14.2C17.9229 14.4 18.4229 14.4 18.7229 14.1C21.8229 11.2 25.6229 9 29.6229 7.8C30.0229 7.7 30.3229 7.3 30.3229 6.8V3.2C30.3229 2.6 30.8229 2 31.5229 2H44.7229C45.3229 2 45.9229 2.5 45.9229 3.2V6.7C45.9229 7.2 46.2229 7.5 46.6229 7.7C50.6229 8.9 54.4229 11.1 57.5229 14C57.8229 14.3 58.3229 14.4 58.7229 14.1L61.8229 12.3C62.1229 12.1 62.4229 12.1 62.7229 12.2C63.0229 12.3 63.3229 12.5 63.4229 12.7L70.0229 24.1C70.2229 24.4 70.2229 24.7 70.1229 25C70.0229 25.3 69.8229 25.6 69.6229 25.7L66.5229 27.5C66.1229 27.7 65.9229 28.2 66.0229 28.6C66.5229 30.7 66.7229 32.8 66.7229 34.9C66.7229 37 66.5229 39.1 66.0229 41.2C65.9229 41.6 66.1229 42.1 66.5229 42.3L69.6229 44.1C70.0229 44.5 70.2229 45.2 69.9229 45.8Z" fill="black"/>
<path d="M38.0229 14.2C26.6229 14.2 17.2229 23.5 17.2229 35C17.2229 46.5 26.5229 55.8 38.0229 55.8C49.4229 55.8 58.8229 46.5 58.8229 35C58.8229 23.5 49.5229 14.2 38.0229 14.2ZM38.0229 53.7C27.7229 53.7 19.3229 45.3 19.3229 35C19.3229 24.7 27.7229 16.3 38.0229 16.3C48.3229 16.3 56.7229 24.7 56.7229 35C56.7229 45.3 48.3229 53.7 38.0229 53.7Z" fill="black"/>
<path d="M41.9229 29.6H38.1229C37.5229 29.6 37.1229 30.1 37.1229 30.6V39.4C37.1229 40 37.6229 40.4 38.1229 40.4C38.7229 40.4 39.1229 39.9 39.1229 39.4V37.1H41.9229C44.0229 37.1 45.7229 35.4 45.7229 33.3C45.7229 31.2 43.9229 29.6 41.9229 29.6ZM41.9229 35.1H39.1229V31.7H41.9229C42.8229 31.7 43.6229 32.5 43.6229 33.4C43.6229 34.3 42.8229 35.1 41.9229 35.1Z" fill="black"/>
<path d="M32.4229 30.3C32.2229 29.9 31.9229 29.6 31.4229 29.6H30.3229C29.9229 29.6 29.5229 29.9 29.3229 30.3L26.1229 39C25.9229 39.5 26.2229 40.1 26.7229 40.3C27.2229 40.5 27.8229 40.2 28.0229 39.7L28.6229 38.2H33.2229L33.8229 39.7C34.0229 40.1 34.3229 40.4 34.8229 40.4C34.9229 40.4 35.0229 40.4 35.2229 40.3C35.7229 40.1 36.0229 39.5 35.8229 39L32.4229 30.3ZM29.4229 36.2L30.9229 32.1L32.4229 36.2H29.4229Z" fill="black"/>
<path d="M47.9229 29.6C47.3229 29.6 46.9229 30.1 46.9229 30.6V39.4C46.9229 40 47.4229 40.4 47.9229 40.4C48.5229 40.4 48.9229 39.9 48.9229 39.4V30.6C48.9229 30 48.5229 29.6 47.9229 29.6Z" fill="black"/>
<path d="M45.4229 12C46.1229 12.2 46.8229 12.5 47.5229 12.8C47.6229 12.9 47.8229 12.9 47.9229 12.9C48.3229 12.9 48.7229 12.7 48.8229 12.3C49.0229 11.8 48.8229 11.2 48.3229 11C47.6229 10.7 46.8229 10.4 46.0229 10.1C45.5229 9.89997 44.9229 10.2 44.7229 10.8C44.5229 11.2 44.8229 11.8 45.4229 12Z" fill="#004976"/>
<path d="M16.8229 46.6C16.5229 46.1 15.9229 45.9 15.4229 46.2C14.9229 46.5 14.7229 47.1 15.0229 47.6C15.4229 48.4 15.9229 49.1 16.4229 49.9C16.6229 50.2 16.9229 50.3 17.2229 50.3C17.4229 50.3 17.6229 50.2 17.8229 50.1C18.3229 49.8 18.4229 49.1 18.1229 48.7C17.6229 48 17.2229 47.3 16.8229 46.6Z" fill="#004976"/>
<path d="M35.9229 59.1C30.4229 58.6 25.2229 56.2 21.2229 52.4C20.8229 52 20.1229 52 19.7229 52.4C19.3229 52.8 19.3229 53.5 19.7229 53.9C24.0229 58.1 29.7229 60.7 35.7229 61.2H35.8229C36.3229 61.2 36.8229 60.8 36.8229 60.3C36.9229 59.6 36.5229 59.1 35.9229 59.1Z" fill="#004976"/>
<path d="M52.8229 13.3C52.3229 13 51.7229 13.1 51.4229 13.6C51.1229 14.1 51.2229 14.7 51.7229 15C56.5229 18.3 59.9229 23.1 61.4229 28.7C61.5229 29.2 61.9229 29.5 62.4229 29.5C62.5229 29.5 62.6229 29.5 62.7229 29.5C63.2229 29.4 63.6229 28.8 63.4229 28.2C61.7229 22.1 58.0229 16.9 52.8229 13.3Z" fill="#004976"/>
</g>
<defs>
<filter id="filter0_d" x="0" y="0" width="77" height="78" filterUnits="userSpaceOnUse" color-interpolation-filters="sRGB">
<feFlood flood-opacity="0" result="BackgroundImageFix"/>
<feColorMatrix in="SourceAlpha" type="matrix" values="0 0 0 0 0 0 0 0 0 0 0 0 0 0 0 0 0 0 127 0"/>
<feOffset dy="4"/>
<feGaussianBlur stdDeviation="2"/>
<feColorMatrix type="matrix" values="0 0 0 0 0 0 0 0 0 0 0 0 0 0 0 0 0 0 0.25 0"/>
<feBlend mode="normal" in2="BackgroundImageFix" result="effect1_dropShadow"/>
<feBlend mode="normal" in="SourceGraphic" in2="effect1_dropShadow" result="shape"/>
</filter>
<clipPath id="clip0">
<rect width="69" height="70" fill="white" transform="translate(4)"/>
</clipPath>
</defs>
</svg>
