<?xml version="1.0" encoding="utf-8"?>
<!-- Generator: Adobe Illustrator 23.0.1, SVG Export Plug-In . SVG Version: 6.00 Build 0)  -->
<svg version="1.1" id="Layer_1" xmlns="http://www.w3.org/2000/svg" xmlns:xlink="http://www.w3.org/1999/xlink" x="0px" y="0px"
	 width="90px" height="90px" viewBox="0 0 90 90" style="enable-background:new 0 0 90 90;" xml:space="preserve">
<style type="text/css">
	.st0{fill:#FF5555;}
</style>
<circle class="st0" cx="69.6" cy="78.2" r="3.9"/>
<circle class="st0" cx="77.7" cy="78.2" r="3.9"/>
<rect x="42.6" y="62.7" class="st0" width="45.6" height="5.2"/>
<path d="M69.1,51.8V23.9H54.7v-9.1c0-7.7-6.3-14-14-14c-1.9,0-3.8,0.4-5.6,1.2L35,2.2l-0.2-0.1c-1.8-0.8-3.7-1.2-5.6-1.2
	c-7.7,0-14,6.3-14,14v9.1H0.9v65.3h36.5v-2H2.9V26h12.4v6.8L15,32.8c-1.5,0.6-2.6,2-2.6,3.6c0,2.1,1.7,3.9,3.9,3.9s3.9-1.7,3.9-3.9
	c0-1.6-1-3.1-2.6-3.6l-0.3-0.1V26h23.9v6.8l-0.3,0.1c-1.5,0.6-2.6,2-2.6,3.6c0,2.1,1.7,3.9,3.9,3.9s3.9-1.7,3.9-3.9
	c0-1.6-1-3.1-2.6-3.6l-0.3-0.1V26h12.4v25.9h2V26h9.5v25.9H69.1z M18.2,36.5c0,1-0.8,1.9-1.9,1.9s-1.9-0.8-1.9-1.9
	c0-1,0.8-1.9,1.9-1.9S18.2,35.4,18.2,36.5z M26.8,23.9h-9.5v-9.1c0-6.6,5.4-11.9,11.9-11.9c0.9,0,1.7,0.1,2.6,0.3l0.9,0.2L32.1,4
	c-3.3,2.7-5.2,6.6-5.2,10.9V23.9z M28.8,23.9v-9.1c0-4.2,2.3-8.2,6-10.3L35,4.4l0.2,0.1c3.7,2.1,6,6.1,6,10.3v9.1H28.8z M44.1,36.5
	c0,1-0.8,1.9-1.9,1.9c-1,0-1.9-0.8-1.9-1.9c0-1,0.8-1.9,1.9-1.9C43.2,34.6,44.1,35.4,44.1,36.5z M52.7,23.9h-9.5v-9.1
	c0-4.2-1.9-8.2-5.2-10.9l-0.7-0.6l0.9-0.2C39,3,39.9,2.9,40.8,2.9c6.6,0,11.9,5.4,11.9,11.9V23.9z"/>
<path d="M85.4,55.6H45.1c-2.1,0-3.9,1.7-3.9,3.9v25.9c0,2.1,1.7,3.9,3.9,3.9h40.3c2.1,0,3.9-1.7,3.9-3.9V59.5
	C89.2,57.3,87.5,55.6,85.4,55.6z M87.2,85.4c0,1-0.8,1.9-1.9,1.9H45.1c-1,0-1.9-0.8-1.9-1.9V69.1h44V85.4z M87.2,67.1h-44v-3.7h44
	V67.1z M87.2,61.3h-44v-1.9c0-1,0.8-1.9,1.9-1.9h40.3c1,0,1.9,0.8,1.9,1.9V61.3z"/>
<path d="M73.8,81.3l0.3,0.4c1,1.2,2.5,1.8,4,1.8c2.9,0,5.3-2.4,5.3-5.3s-2.4-5.3-5.3-5.3c-1.5,0-3,0.7-4,1.8L73.8,75l-0.3-0.4
	c-1-1.2-2.5-1.8-4-1.8c-2.9,0-5.3,2.4-5.3,5.3s2.4,5.3,5.3,5.3c1.5,0,3-0.7,4-1.8L73.8,81.3z M78.2,74.9c1.8,0,3.3,1.5,3.3,3.3
	s-1.5,3.3-3.3,3.3s-3.3-1.5-3.3-3.3S76.3,74.9,78.2,74.9z M69.5,81.5c-1.8,0-3.3-1.5-3.3-3.3s1.5-3.3,3.3-3.3s3.3,1.5,3.3,3.3
	S71.4,81.5,69.5,81.5z"/>
<rect x="61.3" y="29.7" width="2" height="22.2"/>
</svg>
