<svg width="90" height="90" viewBox="0 0 90 90" fill="none" xmlns="http://www.w3.org/2000/svg">
<path d="M69.6 82.1C71.7539 82.1 73.5 80.3539 73.5 78.2C73.5 76.0461 71.7539 74.3 69.6 74.3C67.4461 74.3 65.7 76.0461 65.7 78.2C65.7 80.3539 67.4461 82.1 69.6 82.1Z" fill="#004976"/>
<path d="M77.7 82.1C79.8539 82.1 81.6 80.3539 81.6 78.2C81.6 76.0461 79.8539 74.3 77.7 74.3C75.5461 74.3 73.8 76.0461 73.8 78.2C73.8 80.3539 75.5461 82.1 77.7 82.1Z" fill="#004976"/>
<path d="M88.2 62.7H42.6V67.9H88.2V62.7Z" fill="#004976"/>
<path d="M69.1 51.8V23.9H54.7V14.8C54.7 7.09999 48.4 0.799988 40.7 0.799988C38.8 0.799988 36.9 1.19999 35.1 1.99999L35 2.19999L34.8 2.09999C33 1.29999 31.1 0.899988 29.2 0.899988C21.5 0.899988 15.2 7.19999 15.2 14.9V24H0.900024V89.3H37.4V87.3H2.90002V26H15.3V32.8H15C13.5 33.4 12.4 34.8 12.4 36.4C12.4 38.5 14.1 40.3 16.3 40.3C18.5 40.3 20.2 38.6 20.2 36.4C20.2 34.8 19.2 33.3 17.6 32.8L17.3 32.7V26H41.2V32.8L40.9 32.9C39.4 33.5 38.3 34.9 38.3 36.5C38.3 38.6 40 40.4 42.2 40.4C44.4 40.4 46.1 38.7 46.1 36.5C46.1 34.9 45.1 33.4 43.5 32.9L43.2 32.8V26H55.6V51.9H57.6V26H67.1V51.9H69.1V51.8ZM18.2 36.5C18.2 37.5 17.4 38.4 16.3 38.4C15.2 38.4 14.4 37.6 14.4 36.5C14.4 35.5 15.2 34.6 16.3 34.6C17.4 34.6 18.2 35.4 18.2 36.5ZM26.8 23.9H17.3V14.8C17.3 8.19999 22.7 2.89999 29.2 2.89999C30.1 2.89999 30.9 2.99999 31.8 3.19999L32.7 3.39999L32.1 3.99999C28.8 6.69999 26.9 10.6 26.9 14.9V23.9H26.8ZM28.8 23.9V14.8C28.8 10.6 31.1 6.59999 34.8 4.49999L35 4.39999L35.2 4.49999C38.9 6.59999 41.2 10.6 41.2 14.8V23.9H28.8ZM44.1 36.5C44.1 37.5 43.3 38.4 42.2 38.4C41.2 38.4 40.3 37.6 40.3 36.5C40.3 35.5 41.1 34.6 42.2 34.6C43.2 34.6 44.1 35.4 44.1 36.5ZM52.7 23.9H43.2V14.8C43.2 10.6 41.3 6.59999 38 3.89999L37.3 3.29999L38.2 3.09999C39 2.99999 39.9 2.89999 40.8 2.89999C47.4 2.89999 52.7 8.29999 52.7 14.8V23.9V23.9Z" fill="black"/>
<path d="M85.4 55.6H45.1C43 55.6 41.2 57.3 41.2 59.5V85.4C41.2 87.5 42.9 89.3 45.1 89.3H85.4C87.5 89.3 89.3 87.6 89.3 85.4V59.5C89.2 57.3 87.5 55.6 85.4 55.6ZM87.2 85.4C87.2 86.4 86.4 87.3 85.3 87.3H45.1C44.1 87.3 43.2 86.5 43.2 85.4V69.1H87.2V85.4ZM87.2 67.1H43.2V63.4H87.2V67.1ZM87.2 61.3H43.2V59.4C43.2 58.4 44 57.5 45.1 57.5H85.4C86.4 57.5 87.3 58.3 87.3 59.4V61.3H87.2Z" fill="black"/>
<path d="M73.8 81.3L74.1 81.7C75.1 82.9 76.6 83.5 78.1 83.5C81 83.5 83.4 81.1 83.4 78.2C83.4 75.3 81 72.9 78.1 72.9C76.6 72.9 75.1 73.6 74.1 74.7L73.8 75L73.5 74.6C72.5 73.4 71 72.8 69.5 72.8C66.6 72.8 64.2 75.2 64.2 78.1C64.2 81 66.6 83.4 69.5 83.4C71 83.4 72.5 82.7 73.5 81.6L73.8 81.3ZM78.2 74.9C80 74.9 81.5 76.4 81.5 78.2C81.5 80 80 81.5 78.2 81.5C76.4 81.5 74.9 80 74.9 78.2C74.9 76.4 76.3 74.9 78.2 74.9ZM69.5 81.5C67.7 81.5 66.2 80 66.2 78.2C66.2 76.4 67.7 74.9 69.5 74.9C71.3 74.9 72.8 76.4 72.8 78.2C72.8 80 71.4 81.5 69.5 81.5Z" fill="black"/>
<path d="M63.3 29.7H61.3V51.9H63.3V29.7Z" fill="black"/>
</svg>
