<?xml version="1.0" encoding="utf-8"?>
<!-- Generator: Adobe Illustrator 23.0.1, SVG Export Plug-In . SVG Version: 6.00 Build 0)  -->
<svg version="1.1" id="Layer_1" xmlns="http://www.w3.org/2000/svg" xmlns:xlink="http://www.w3.org/1999/xlink" x="0px" y="0px"
	 width="90px" height="90px" viewBox="0 0 90 90" style="enable-background:new 0 0 90 90;" xml:space="preserve">
<style type="text/css">
	.st0{fill:#FF5555;}
</style>
<rect x="5.8" y="12.2" class="st0" width="78.5" height="4"/>
<circle class="st0" cx="33.5" cy="65.6" r="2.8"/>
<circle class="st0" cx="58.4" cy="65.8" r="2.2"/>
<g>
	<g>
		<path d="M82.1,9.4H7.9c-2.4,0-4.4,2-4.4,4.4v62.4c0,2.4,2,4.4,4.4,4.4h74.3c2.4,0,4.4-2,4.4-4.4V13.8C86.5,11.4,84.5,9.4,82.1,9.4
			z M24.1,12.2h53.7v3.2H24.1V12.2z M18.2,12.2h3.2v3.2h-3.2V12.2z M12.2,12.2h3.2v3.2h-3.2V12.2z M6.3,13.8c0-0.9,0.7-1.6,1.6-1.6
			h1.6v3.2H6.3V13.8z M83.7,76.2c0,0.9-0.7,1.6-1.6,1.6H7.9c-0.9,0-1.6-0.7-1.6-1.6v-58h77.4C83.7,18.2,83.7,76.2,83.7,76.2z
			 M83.7,15.4h-3.2v-3.2h1.6c0.9,0,1.6,0.7,1.6,1.6V15.4L83.7,15.4z"/>
	</g>
</g>
<g>
	<g>
		<path d="M79.2,21.3H10.8c-0.8,0-1.4,0.6-1.4,1.4s0.6,1.4,1.4,1.4h68.3c0.8,0,1.4-0.6,1.4-1.4S79.9,21.3,79.2,21.3z"/>
	</g>
</g>
<g>
	<g>
		<path d="M39.5,59.5c0.2,0,0.4,0,0.5,0l18.8-2.4c2.2-0.3,3.8-2.1,3.8-4.3V40.5c0-0.8-0.6-1.4-1.4-1.4h-8.9c-0.8,0-1.4,0.6-1.4,1.4
			s0.6,1.4,1.4,1.4h7.5v10.8c0,0.8-0.6,1.5-1.4,1.6l-18.8,2.4c-0.7,0.1-1.4-0.3-1.7-1L32.7,42h7.6c0.8,0,1.4-0.6,1.4-1.4
			s-0.6-1.4-1.4-1.4h-8.7L30.7,36c-0.6-1.7-2.3-2.8-4.1-2.8h-2.4c-0.8,0-1.4,0.6-1.4,1.4c0,0.8,0.6,1.4,1.4,1.4h2.4
			c0.7,0,1.2,0.4,1.5,1l7.4,19.6c0.2,0.5,0.4,0.9,0.8,1.3L34,61.5c-0.3-0.1-0.6-0.1-0.9-0.1c-2.4,0-4.4,2-4.4,4.4s2,4.4,4.4,4.4
			c1.9,0,3.6-1.2,4.1-3h17c0.6,1.7,2.2,3,4.1,3c2.4,0,4.4-2,4.4-4.4s-2-4.4-4.4-4.4c-1.9,0-3.6,1.2-4.1,3h-17
			c-0.2-0.5-0.5-1-0.8-1.4l2.1-3.6C38.9,59.5,39.2,59.5,39.5,59.5z M33.1,67.4c-0.9,0-1.6-0.7-1.6-1.6s0.7-1.6,1.6-1.6
			s1.6,0.7,1.6,1.6C34.7,66.7,34,67.4,33.1,67.4z M58.4,64.2c0.9,0,1.6,0.7,1.6,1.6s-0.7,1.6-1.6,1.6s-1.6-0.7-1.6-1.6
			C56.8,64.9,57.5,64.2,58.4,64.2z"/>
	</g>
</g>
<g>
	<g>
		<path d="M51.9,45.5c-0.5-0.5-1.4-0.5-2,0l-2.1,2.1v-16c0-0.8-0.6-1.4-1.4-1.4c-0.8,0-1.4,0.6-1.4,1.4v15.9l-2-2
			c-0.5-0.5-1.4-0.5-2,0c-0.5,0.5-0.5,1.4,0,2l4.5,4.5c0.3,0.3,0.6,0.4,1,0.4s0.7-0.1,1-0.4l4.5-4.5C52.5,46.9,52.5,46,51.9,45.5z"
			/>
	</g>
</g>
</svg>
