<svg width="70" height="70" viewBox="0 0 70 70" fill="none" xmlns="http://www.w3.org/2000/svg">
<path d="M69.6 18V5.7C69.6 2.7 67.2 0.300003 64.2 0.300003H21.9C21.3 0.300003 20.9 0.800003 20.9 1.3C20.9 1.8 21.4 2.3 21.9 2.3H60L59.7 2.8C59.2 3.6 58.9 4.6 58.9 5.6V23.5C58.9 24.1 59.4 24.5 59.9 24.5C60.4 24.5 60.9 24 60.9 23.5V18.9H68.6C69.2 19.1 69.6 18.6 69.6 18ZM67.6 16.9V17H60.9V5.7C60.9 3.8 62.4 2.3 64.3 2.3C66.2 2.3 67.7 3.8 67.7 5.7V16.9H67.6Z" fill="black"/>
<path d="M68.3 56L59.2 46.9L59.3 46.7C60.3 44.6 60.9 42.3 60.9 39.9C60.9 31.3 53.9 24.4 45.4 24.4C36.9 24.4 29.9 31.4 29.9 39.9C29.9 41.8 30.2 43.7 30.9 45.4L31 45.6L29 47.6L28.8 47.4L22.2 40.8C21.8 40.4 21.1 40.4 20.8 40.8L18.7 42.9V29.6C18.7 29 18.2 28.6 17.7 28.6C17.2 28.6 16.7 29.1 16.7 29.6V45L4.00001 57.4C3.80001 57.6 3.70001 57.8 3.70001 58.1C3.70001 58.4 3.80001 58.6 4.00001 58.8C4.40001 59.2 5.10001 59.2 5.40001 58.8L16.4 47.8V58.8H10C9.40001 58.8 9.00001 59.3 9.00001 59.8V64.2C9.00001 67.2 11.4 69.6 14.4 69.6H55.4C58.4 69.6 60.8 67.2 60.8 64.2V62.2L61.4 62.8C62.3 63.7 63.5 64.1 64.7 64.1C66 64.1 67.2 63.6 68.1 62.7C70.1 60.9 70.1 57.8 68.3 56ZM45.3 26.4C52.7 26.4 58.8 32.4 58.8 39.9C58.8 47.4 52.8 53.4 45.3 53.4C40.4 53.4 35.8 50.7 33.5 46.4L33.4 46L42.1 37.3V41.2C42.1 41.8 42.6 42.2 43.1 42.2C43.7 42.2 44.1 41.7 44.1 41.2V34.6C44.1 34 43.6 33.6 43.1 33.6H36.5C35.9 33.6 35.5 34.1 35.5 34.6C35.5 35.2 36 35.6 36.5 35.6H40.8L32.5 44L32.3 43.4C32 42.2 31.8 41 31.8 39.8C31.9 32.4 37.9 26.4 45.3 26.4ZM14.1 67.6C12.4 67.4 11.1 66 11.1 64.3V60.9H50.1V62.9V63V63.1V64.2C50.1 65.2 50.4 66.2 50.9 67L51.2 67.5L14.1 67.6ZM58.9 64.3C58.9 66.2 57.4 67.7 55.5 67.7C53.6 67.7 52.1 66.2 52.1 64.3V63.2V63.1V63V60C52.1 59.4 51.6 59 51.1 59H18.5V45.8L21.4 42.9L28.2 49.7C28.6 50.1 29.3 50.1 29.6 49.7L31.8 47.5L32 47.9C34.9 52.6 39.8 55.3 45.2 55.3C47.6 55.3 49.9 54.8 52 53.7L52.2 53.6L52.4 53.8L58.8 60.2V64.3H58.9ZM66.8 61.3C66.3 61.8 65.6 62.1 64.8 62.1C64 62.1 63.4 61.8 62.8 61.3L54.1 52.6L54.4 52.4C55.7 51.5 56.8 50.3 57.8 49L58 48.7L66.7 57.4C67.9 58.5 67.9 60.2 66.8 61.3Z" fill="black"/>
<path d="M54 38.8C53.4 38.8 53 39.3 53 39.8C53 44 49.6 47.4 45.4 47.4C44.8 47.4 44.4 47.9 44.4 48.4C44.4 49 44.9 49.4 45.4 49.4C50.7 49.4 55.1 45.1 55.1 39.7C55 39.3 54.5 38.8 54 38.8Z" fill="black"/>
<path d="M1.40002 25.9H35C35.6 25.9 36 25.4 36 24.9C36 24.3 35.5 23.9 35 23.9H33.4V14.4C33.4 13.8 32.9 13.4 32.4 13.4H26.1C25.5 13.4 25.1 13.9 25.1 14.4V23.9H22.2V8.7C22.2 8.1 21.7 7.7 21.2 7.7H15.2C14.6 7.7 14.2 8.2 14.2 8.7V23.8H11.3V17.4C11.3 16.8 10.8 16.4 10.3 16.4H4.30002C3.70002 16.4 3.30002 16.9 3.30002 17.4V23.8H1.40002C0.800024 23.8 0.400024 24.3 0.400024 24.8C0.400024 25.3 0.800024 25.9 1.40002 25.9ZM27.1 15.4H31.3V23.9H27.1V15.4ZM16.2 9.8H20.2V23.9H16.2V9.8ZM5.30002 18.5H9.30002V23.8H5.30002V18.5V18.5Z" fill="#FF5555"/>
<path d="M46.1 7.7H35.5C34.9 7.7 34.5 8.2 34.5 8.7C34.5 9.2 35 9.7 35.5 9.7H46.1C46.7 9.7 47.1 9.2 47.1 8.7C47.1 8.2 46.7 7.7 46.1 7.7Z" fill="#FF5555"/>
<path d="M53.6 8C53.4 7.8 53.1 7.7 52.9 7.7C52.7 7.7 52.4 7.8 52.2 8C52 8.2 51.9 8.5 51.9 8.7C51.9 8.9 52 9.2 52.2 9.4C52.6 9.8 53.3 9.8 53.6 9.4C53.8 9.2 53.9 8.9 53.9 8.7C53.9 8.5 53.8 8.2 53.6 8Z" fill="#FF5555"/>
<path d="M40.8 13.7H38.6C38 13.7 37.6 14.2 37.6 14.7C37.6 15.2 38.1 15.7 38.6 15.7H40.8C41.4 15.7 41.8 15.2 41.8 14.7C41.8 14.2 41.4 13.7 40.8 13.7Z" fill="#FF5555"/>
<path d="M52.9 13.7H46.1C45.5 13.7 45.1 14.2 45.1 14.7C45.1 15.2 45.6 15.7 46.1 15.7H52.9C53.5 15.7 53.9 15.2 53.9 14.7C53.9 14.2 53.5 13.7 52.9 13.7Z" fill="#FF5555"/>
<path d="M2.10002 60.8C1.90002 60.6 1.60002 60.5 1.40002 60.5C1.10002 60.5 0.900024 60.6 0.700024 60.8C0.500024 61 0.400024 61.2 0.400024 61.5C0.400024 61.8 0.500024 62 0.700024 62.2C1.10002 62.6 1.80002 62.6 2.10002 62.2C2.30002 62 2.40002 61.7 2.40002 61.5C2.40002 61.3 2.30002 61 2.10002 60.8Z" fill="black"/>
</svg>
