<svg width="94" height="105" viewBox="0 0 94 105" fill="none" xmlns="http://www.w3.org/2000/svg">
<rect x="1" y="1" width="92" height="103" rx="15" stroke="white" stroke-width="2"/>
<path d="M74.1658 32.64L73.9738 37.728L73.8778 38.88L72.9178 46.944C72.7258 48.48 72.5018 49.952 72.2458 51.36C71.9898 52.768 71.7018 54.112 71.3818 55.392L70.7098 57.696L70.0378 59.616C67.8618 66.016 65.3338 70.72 62.4538 73.728L60.3418 75.936L57.5578 78.24C53.9098 81.376 48.7578 83.424 42.1018 84.384C37.8778 84.384 35.1898 84.224 34.0378 83.904C31.0298 83.328 28.6618 81.984 26.9338 79.872C26.4858 79.36 25.9098 78.208 25.2057 76.416L24.6298 74.016L24.4378 71.232C24.3738 70.656 24.4698 69.312 24.7258 67.2L25.7818 58.464L26.9338 48.48L28.3738 37.536L28.5658 34.944C28.6298 33.6 28.3418 32.48 27.7018 31.584L28.4698 30.624L30.6778 29.952L32.8858 29.376L37.5898 28.608L38.7418 28.512C41.3018 28.32 42.5818 29.792 42.5818 32.928V33.504L42.3898 35.04L41.3338 41.856L39.9898 48L38.8378 54.336L37.2058 63.936L36.4377 69.408L36.2458 73.152C35.9258 77.824 37.9097 80.704 42.1978 81.792L43.7338 81.984C46.6138 81.984 49.3978 80.128 52.0858 76.416C53.6858 74.24 55.0938 71.424 56.3098 67.968C57.6538 64 58.5498 60.288 58.9978 56.832L59.3818 53.184L60.2458 45.408L60.5338 40.8L60.7258 35.904C60.7898 33.472 60.6618 31.136 60.3418 28.896C60.3418 27.744 59.9258 26.432 59.0938 24.96L67.6378 22.272C68.5338 22.016 69.3978 21.888 70.2298 21.888C71.1898 21.888 71.9258 22.208 72.4378 22.848C73.7178 24.384 74.2938 27.648 74.1658 32.64Z" fill="white"/>
</svg>
