<svg width="62" height="70" viewBox="0 0 62 70" fill="none" xmlns="http://www.w3.org/2000/svg">
<path d="M6.39062 16.4062C3.37516 16.4062 0.921875 18.8595 0.921875 21.875C0.921875 24.8905 3.37516 27.3438 6.39062 27.3438C9.40609 27.3438 11.8594 24.8905 11.8594 21.875C11.8594 21.7483 11.8535 21.6228 11.8449 21.4981L18.5267 19.2711C19.9146 22.3489 22.4317 24.8452 25.5312 26.2035V38.5547H22.7969C19.7814 38.5547 17.3281 41.008 17.3281 44.0234V48.125C17.3281 58.0695 23.9219 66.2933 32.7139 69.021C33.4365 69.2456 34.2017 68.8395 34.4248 68.1203C34.6486 67.3992 34.2453 66.6332 33.5241 66.4094C25.4723 63.9114 20.0625 56.5634 20.0625 48.125V44.0234C20.0625 42.5157 21.2891 41.2891 22.7969 41.2891H25.5312V48.125C25.5312 48.88 26.1435 49.4922 26.8984 49.4922C27.6534 49.4922 28.2656 48.88 28.2656 48.125C28.2656 47.5956 28.2656 14.1209 28.2656 13.6719C28.2656 12.1641 29.4923 10.9375 31 10.9375C32.5077 10.9375 33.7344 12.1641 33.7344 13.6719V39.9219C33.7344 40.6768 34.3466 41.2891 35.1016 41.2891C35.8565 41.2891 36.4688 40.6768 36.4688 39.9219V31.4453C36.4688 29.9376 37.6954 28.7109 39.2031 28.7109C40.7109 28.7109 41.9375 29.9376 41.9375 31.4453V39.9219C41.9375 40.6768 42.5497 41.2891 43.3047 41.2891C44.0596 41.2891 44.6719 40.6768 44.6719 39.9219V34.1797C44.6719 32.672 45.8985 31.4453 47.4062 31.4453C48.914 31.4453 50.1406 32.672 50.1406 34.1797V39.9219C50.1406 40.6768 50.7529 41.2891 51.5078 41.2891C52.2628 41.2891 52.875 40.6768 52.875 39.9219V36.9141C52.875 35.4063 54.1016 34.1797 55.6094 34.1797C57.1171 34.1797 58.3438 35.4063 58.3438 36.9141V48.125C58.3438 56.8116 52.5913 64.0173 44.882 66.4094C44.161 66.6332 43.7576 67.3991 43.9814 68.1204C44.2046 68.8399 44.9698 69.2453 45.6925 69.021C54.4907 66.2907 61.0781 58.0717 61.0781 48.125V36.9141C61.0781 33.8986 58.6248 31.4453 55.6094 31.4453C54.484 31.4453 53.4372 31.7872 52.5667 32.3724C51.8186 30.2426 49.7884 28.7109 47.4062 28.7109C46.2809 28.7109 45.2341 29.0529 44.3636 29.638C43.6154 27.5082 41.5853 25.9766 39.2031 25.9766C38.2074 25.9766 37.2738 26.2454 36.4688 26.7124V26.2037C39.5686 24.8452 42.0857 22.3486 43.4733 19.2712L50.155 21.4981C50.1465 21.6228 50.1406 21.7483 50.1406 21.875C50.1406 24.8905 52.5939 27.3438 55.6094 27.3438C58.6248 27.3438 61.0781 24.8905 61.0781 21.875C61.0781 18.8595 58.6248 16.4062 55.6094 16.4062C53.6886 16.4062 51.9973 17.4025 51.0214 18.9045L44.3376 16.677C44.558 15.6959 44.6719 14.6903 44.6719 13.6719C44.6719 12.6533 44.558 11.6476 44.3376 10.6669L51.0214 8.43937C51.9973 9.94123 53.6886 10.9375 55.6094 10.9375C58.6248 10.9375 61.0781 8.48422 61.0781 5.46875C61.0781 2.45328 58.6248 0 55.6094 0C52.5939 0 50.1406 2.45328 50.1406 5.46875C50.1406 5.59549 50.1465 5.721 50.1551 5.84568L43.4738 8.07242C41.2889 3.19361 36.4361 0 31 0C25.5637 0 20.7107 3.19389 18.5262 8.07242L11.845 5.84568C11.8535 5.721 11.8594 5.59549 11.8594 5.46875C11.8594 2.45328 9.40609 0 6.39062 0C3.37516 0 0.921875 2.45328 0.921875 5.46875C0.921875 8.48422 3.37516 10.9375 6.39062 10.9375C8.31139 10.9375 10.0027 9.94123 10.9786 8.43924L17.6624 10.6668C17.442 11.6479 17.3281 12.6535 17.3281 13.6719C17.3281 14.6904 17.4422 15.6961 17.6624 16.6768L10.9786 18.9044C10.0027 17.4025 8.31139 16.4062 6.39062 16.4062ZM55.6094 19.1406C57.1171 19.1406 58.3438 20.3673 58.3438 21.875C58.3438 23.3827 57.1171 24.6094 55.6094 24.6094C54.1016 24.6094 52.875 23.3827 52.875 21.875C52.875 20.3673 54.1016 19.1406 55.6094 19.1406ZM55.6094 2.73438C57.1171 2.73438 58.3438 3.96102 58.3438 5.46875C58.3438 6.97648 57.1171 8.20312 55.6094 8.20312C54.1016 8.20312 52.875 6.97648 52.875 5.46875C52.875 3.96102 54.1016 2.73438 55.6094 2.73438ZM6.39062 8.20312C4.88289 8.20312 3.65625 6.97648 3.65625 5.46875C3.65625 3.96102 4.88289 2.73438 6.39062 2.73438C7.89836 2.73438 9.125 3.96102 9.125 5.46875C9.125 6.97648 7.89836 8.20312 6.39062 8.20312ZM31 2.73438C37.0685 2.73438 41.9375 7.64477 41.9375 13.6719C41.9375 17.6791 39.7812 21.2192 36.4688 23.1429V13.6719C36.4688 10.6564 34.0155 8.20312 31 8.20312C27.9845 8.20312 25.5312 10.6564 25.5312 13.6719V23.1429C22.2161 21.2174 20.0625 17.672 20.0625 13.6719C20.0625 7.69139 24.8813 2.73438 31 2.73438ZM6.39062 24.6094C4.88289 24.6094 3.65625 23.3827 3.65625 21.875C3.65625 20.3673 4.88289 19.1406 6.39062 19.1406C7.89836 19.1406 9.125 20.3673 9.125 21.875C9.125 23.3827 7.89836 24.6094 6.39062 24.6094Z" fill="#0071B3"/>
<path d="M37.8359 68.6328C37.8359 69.3879 38.448 70 39.2031 70C39.9582 70 40.5703 69.3879 40.5703 68.6328C40.5703 67.8777 39.9582 67.2656 39.2031 67.2656C38.448 67.2656 37.8359 67.8777 37.8359 68.6328Z" fill="#0071B3"/>
</svg>
