<svg id="Layer_1" data-name="Layer 1" xmlns="http://www.w3.org/2000/svg" xmlns:xlink="http://www.w3.org/1999/xlink" viewBox="0 0 1840 720"><defs><style>.cls-1,.cls-5{fill:none;}.cls-2{fill:url(#linear-gradient);}.cls-3{clip-path:url(#clip-path);}.cls-4{opacity:0.2;}.cls-5{stroke:#fff;stroke-miterlimit:10;}</style><linearGradient id="linear-gradient" x1="919.95" y1="-126.72" x2="919.95" y2="593.28" gradientTransform="translate(0 126.7)" gradientUnits="userSpaceOnUse"><stop offset="0" stop-color="#ef5743"/><stop offset="1" stop-color="#891231"/></linearGradient><clipPath id="clip-path"><rect class="cls-1" x="-0.2" width="1840.3" height="720"/></clipPath></defs><rect class="cls-2" x="-0.2" width="1840.3" height="720"/><g class="cls-3"><g class="cls-4"><path class="cls-5" d="M2787.9-3.5c-33.1,81.6-158.6,106.1-229.4,97C2400.9,73,2187.8,414.9,1709.8,283.7,1414.1,202.6,1385.6,90.1,1316.3-52c-77.1-157.9-149.2-349.7-573-404.4-158.1-20.5-182.2-209.8-275.7-79.1"/><path class="cls-5" d="M2809.1,6.9c-11.9,29-35.4,50.7-64.4,66-52.4,27.7-119.9,34.3-165.2,27.1-57.3-9.1-121.3,28.5-204.5,75-89.8,50.3-197,115.4-339.8,132.4-89.4,10.7-188.4,12.3-305.2-20-226.9-62.6-294.5-149-346.6-249.2-15.1-29.1-28.8-59.5-44.6-90.9-60.6-120.2-119.2-251.3-328.9-334-66.4-26.1-148.2-47.3-249.5-60.7-157.1-20.9-183.6-205.4-277-79.3"/><path class="cls-5" d="M2765.5,82.7c-53.2,27-119.8,32.1-164.8,23.5-56.9-10.8-120.1,23.5-203.7,68.1-91.1,48.5-196.4,117.9-340.2,132.6-91.2,9.3-188.8,16.7-306.3-16.1C1525.8,228.5,1459.4,137.4,1406.7,37c-15.3-29.3-29.2-59.5-45.3-90.6-62.5-120.3-123.9-242.9-333.7-324.2-66.7-25.8-148.9-47-249.9-61-156.2-21.3-185.1-201-278.4-79.6"/><path class="cls-5" d="M2786.6,93c-54,26.3-119.8,29.9-164.6,20-56.5-12.5-118.8,18.5-203,61.1-92.3,46.7-195.8,120.4-340.5,132.8-92.9,7.9-189.3,21.2-307.6-12.2C1548.5,232.7,1483.1,137,1430,36.2c-15.6-29.5-29.6-59.8-46-90.4-64.5-120.4-128.7-234.2-338.4-314.3-67.1-25.3-149.8-46.7-250.6-61-155.1-21.7-186.6-196.6-279.6-79.8"/><path class="cls-5" d="M2807.5,102.8c-54.7,25.5-119.8,27.7-164.3,16.6-56.2-14.2-117.6,13.3-202.2,54-93.7,44.9-195.3,122.8-341,133.1-94.7,6.6-189.6,25.5-308.8-8.4-220.1-61.6-284.3-162-337.9-263-15.8-29.8-30.1-59.9-46.8-90.2-66.4-120.5-133.4-225.7-343.2-304.4-67.4-25-150.4-46.5-251-61.2-154.1-22.2-188.2-192.2-280.9-80.1"/><path class="cls-5" d="M2664.3,125.9c-55.8-15.9-116.4,8.4-201.5,47-94.9,43.1-194.7,125.2-341.4,133.3-96.4,5.3-190,29.6-310-4.4-217.6-61.9-280.9-166.4-335-267.8-16-29.9-30.5-60-47.4-89.8-68.5-120.5-138.2-217.3-348.1-294.6-67.7-24.6-151.1-46.3-251.6-61.4-153-22.5-189.7-187.8-282.1-80.3"/><path class="cls-5" d="M2685.6,132.7c-55.5-17.6-115.2,3.3-200.7,40-96.3,41.3-194.2,127.6-341.8,133.5-98.2,3.8-190.4,34-311.3-.6-215.2-61.5-277.5-170.7-332.1-272.4-16.3-30.2-31-60.2-48.1-89.5C1381-177,1308.8-265.6,1098.8-341c-68.1-24.4-152-46.1-252.1-61.6-152-22.9-191.2-183.4-283.5-80.5"/><path class="cls-5" d="M2706.9,139c-55.2-19.3-114.1-1.8-200.1,33-97.5,39.4-193.6,129.9-342.2,133.6-99.8,2.5-190.7,38.4-312.4,3.4-213-61.4-274.2-175-329.3-277.1-16.5-30.3-31.3-60.3-48.8-89.3-72.5-120.7-147.6-200.7-357.5-274.7-68.4-24.1-152.7-45.8-252.7-61.8-151-23.4-192.7-179.1-284.7-80.9"/><path class="cls-5" d="M2727.9,145.6c-54.8-21-112.8-6.9-199.2,25.9-98.9,37.6-193.2,132.4-342.6,133.9-101.7,1.2-191.1,42.8-313.6,7.2-210.7-61-270.7-179.3-326.4-281.7-16.7-30.6-31.8-60.4-49.5-89-74.6-120.8-152.4-192.2-362.3-265-68.7-23.8-153.4-45.6-253.2-61.8-150.1-23.7-194.5-174.5-286-81"/><path class="cls-5" d="M2749.2,152.2c-54.4-22.7-111.6-12-198.5,18.9-100.1,35.7-192.5,134.6-342.9,134.1-103.5-.3-191.5,47.2-314.9,11.2-208.3-60.9-267.3-183.7-323.5-286.3-17-30.8-32.2-60.7-50.1-88.8-76.8-120.9-157.1-183.8-367.1-255.1-69.2-23.5-154.3-45.6-253.8-62.1-148.9-24.6-196-170.2-287.1-81.4"/><path class="cls-5" d="M2770.3,158.7c-54-24.4-110.5-17.2-197.8,11.9-101.5,33.8-192,136.8-343.4,134.4-105.2-1.8-191.9,51.6-316,15-206-60.5-263.9-188-320.6-291-17.2-31-32.7-60.7-50.8-88.5-78.9-120.8-161.9-175.3-371.9-245.1-69.4-23.1-154.9-45.4-254.3-62.2-147.9-25-197.7-165.8-288.5-81.6"/><path class="cls-5" d="M2791.5,165c-53.8-26.1-109.4-22.4-197.1,4.9-102.8,31.9-191.5,139.1-343.7,134.6-107-3.1-192.3,55.9-317.3,18.9-203.7-60.2-260.5-192.3-317.6-295.6-17.4-31.2-33.2-60.9-51.6-88.3-81-121-166.7-166.8-376.7-235.2-69.8-22.8-155.6-45.2-254.8-62.4C785.8-383.7,733.3-519.5,643-440"/><path class="cls-5" d="M2812.8,171.9c-53.4-27.9-108.3-27.5-196.3-2.1-104.2,30-191,141.3-344.1,134.8-108.7-4.6-192.7,60.3-318.5,22.8-201.4-60-257.1-196.7-314.8-300.3-17.6-31.4-33.7-60.9-52.3-87.9-83.1-121-171.3-158.3-381.5-225.4-70-22.4-156.4-45-255.3-62.6-146-26.1-201.3-157.3-291.2-82.3"/><path class="cls-5" d="M2638.1,169c-105.5,28.1-190.4,143.6-344.5,135.1-110.5-6.2-193,64.7-319.6,26.7-199-59.7-253.7-201-311.9-305C1644.3-5.8,1628-35.3,1609.2-62c-85.3-120.9-176.2-149.7-386.3-215.5A2165.3,2165.3,0,0,0,967-340.2c-144.8-26.2-202.9-152.5-292.2-82.2"/><path class="cls-5" d="M2660.1,168.7c-107,26.1-189.9,145.8-345,135.3-112.2-7.7-193.4,69-320.9,30.5-196.7-59.3-250.3-205.3-309-309.6-18-31.8-34.6-61.1-53.6-87.4-87.5-120.9-181-141.3-391.1-205.6A2372.9,2372.9,0,0,0,984.1-331c-143.7-26.9-204.6-148.5-293.4-82.6"/><path class="cls-5" d="M2682.2,168.3c-108.3,24.1-189.4,147.9-345.3,135.5-114.1-9.1-193.8,73.4-322.2,34.4-194.4-59.1-246.9-209.6-306.1-314.3-18.2-32-35.1-61.3-54.3-87.1-89.7-121-185.7-132.8-395.8-195.8a2607.6,2607.6,0,0,0-256.9-63c-142.8-27.4-206.7-144.1-294.9-82.9"/><path class="cls-5" d="M2704,168.1c-109.7,22.1-188.8,150.1-345.8,135.7-115.7-10.7-194.1,77.8-323.3,38.4-192-58.8-243.4-214.1-303.2-318.9-18.5-32.3-35.6-61.4-55-87-92-120.8-190.4-124.2-400.5-185.8-71.4-21-159.5-44-257.5-63.2C877-340.5,810.2-452.6,722.6-395.9"/><path class="cls-5" d="M2726,167.2c-111.1,20.1-188.3,152.1-346.1,135.8-117.5-12.1-194.6,82.3-324.5,42.3-189.8-58.4-240.2-218.4-300.3-323.6-18.7-32.4-36.1-61.5-55.6-86.6-94.3-120.8-195.3-115.7-405.4-175.9-71.8-20.6-160.2-43.9-258-63.5-140.8-28.2-210.5-135.6-297.4-83.4"/><path class="cls-5" d="M2747.9,166.7c-112.5,18.2-187.8,154.4-346.5,136.1-119.4-13.7-195,86.6-325.7,46.1-187.5-58-236.7-222.6-297.4-328.2-18.9-32.7-36.6-61.6-56.4-86.4-96.5-120.8-200.1-107.2-410.2-166.2-72-20.2-160.9-43.6-258.5-63.5C913.5-324,840.7-426.9,754.6-379.1"/><path class="cls-5" d="M2769.5,166.4c-113.8,16.1-187.2,156.5-346.8,136.3-121.1-15.2-195.4,91.1-327,50C1910.5,295,1862.4,125.6,1801.2,19.8c-19.2-32.8-37-61.6-57.1-86.1-98.8-120.6-204.8-98.6-414.9-156.2-72.5-19.8-161.7-43.4-259.1-63.7-138.7-29-214.4-127.3-299.9-83.9"/><path class="cls-5" d="M2791.7,165.9c-115.2,14-186.7,158.5-347.3,136.5-122.8-16.8-195.7,95.5-328.2,53.9C1933.3,299,1886.3,125,1824.5,18.8c-19.3-33.1-37.5-61.8-57.7-85.9-101.1-120.5-209.6-90-419.7-146.3-72.8-19.5-162.5-43.1-259.6-63.9C949.8-306.8,871-400.5,786.4-361.5"/><path class="cls-5" d="M2813.6,165.2c-116.6,12-186.1,160.6-347.6,136.7-124.6-18.4-196.1,99.8-329.4,57.8-180.5-57-226.5-235.7-288.8-342.2-19.5-33.3-38-61.8-58.3-85.5C1686-188.5,1575-149.5,1364.9-204.5c-73.1-19.1-163.2-42.9-260.1-64.1C968.1-298.4,886.3-387.8,802.4-353"/><path class="cls-5" d="M2487.3,302.1c-126.4-19.9-196.5,104.3-330.6,61.7-178.3-56.7-223.2-240-286-346.9-19.7-33.5-38.5-62-59-85.2-105.5-120.6-218.9-73.3-429-126.8-73.5-18.8-164-42.7-260.7-64.3C986.2-289.7,901.3-374.6,818.3-344"/><path class="cls-5" d="M2508.6,301.9c-128-21.6-196.8,108.7-331.8,65.6-176-56.3-219.7-244.4-283-351.4C1873.7-17.6,1854.7-46,1834-69c-108.1-120.1-223.9-64.4-434.1-116.6-73.8-18.4-164.7-42.5-261.2-64.4-134.6-30.7-222.7-111.3-305-85"/><path class="cls-5" d="M2530.3,301.7c-129.8-23.2-197.3,113.2-333,69.5C2023.6,315.2,1981,122.5,1917.2,15c-20.2-33.9-39.6-62.1-60.4-84.7-110.5-119.9-228.7-55.8-438.8-106.9-74.1-17.9-165.5-42.1-261.7-64.5-133.5-31.5-224.8-107.7-306.2-85.5"/><path class="cls-5" d="M2551.8,300.8C2420.3,276,2354,418.4,2217.5,374.2c-171.3-55.5-212.8-253.1-277.2-360.8-20.4-34.2-40-62.2-61.1-84.6-112.9-119.7-233.5-47.2-443.6-96.9-74.5-17.6-166.3-42-262.3-64.7-132.6-31.5-226.9-103.6-307.5-85.5"/><path class="cls-5" d="M2573.3,300.8c-133.2-26.4-198.1,122.1-335.3,77.3-169.1-55.2-209.6-257.4-274.4-365.5-20.7-34.3-40.5-62.3-61.8-84.2-115.3-119.4-238.3-38.7-448.4-87-74.8-17.2-167-41.6-262.8-64.9-131.6-31.9-229.1-99.9-308.7-85.7"/><path class="cls-5" d="M2595.2,300.7c-135-28-198.5,126.6-336.6,81.2-166.8-54.8-206.1-261.7-271.5-370.1-20.9-34.5-41.1-62.3-62.5-84-117.8-119.1-243.1-30.1-453.2-77.1-75.2-16.8-167.7-41.4-263.4-65.1-130.6-32.4-231.1-96.2-310-86"/><path class="cls-5" d="M2616.5,300.4c-136.8-29.7-198.9,131-337.9,85.1-164.5-54.4-202.7-266-268.6-374.8-21.1-34.7-41.6-62.4-63.1-83.6-120.2-118.9-247.9-21.5-458-67.3-75.6-16.5-168.6-41.1-263.9-65.3-129.7-32.4-233.2-92.6-311.3-86.2-98.7,8.2-274.6-3-492.3,37.7"/><path class="cls-5" d="M2638.2,299.9c-138.5-31.4-199.2,135.4-339,88.9C2136.9,335,2099.8,118.6,2033.4,9.6c-21.4-35-42.2-62.5-63.8-83.4-122.7-118.4-252.8-12.5-462.8-57.4-75.9-15.9-169.4-40.8-264.5-65.4-128.6-32.9-235.2-89.1-312.5-86.5-99.3,3.3-273.8-7.3-494,35.2"/><path class="cls-5" d="M2659.8,299.6c-140.1-33.1-199.8,139.9-340.3,92.7-160-53.3-196-274.4-262.8-383.7-21.6-35.2-42.7-62.5-64.5-83.2-125.2-118.1-257.6-4-467.6-47.5-76.3-15.5-170-40.5-264.9-65.5-127.6-33.3-237.1-85.6-313.8-86.7C846-275.8,673.1-286,450.2-241.7"/><path class="cls-5" d="M2681.4,299.6c-141.9-34.8-200.3,144.6-341.6,96.7-157.7-53-192.5-279.1-259.9-388.8-21.8-35.4-43.2-62.6-65.2-82.8C1887-193,1752.5-70.7,1542.4-113c-76.6-15.2-170.8-40.3-265.5-65.7-126.7-33.8-239.1-82.2-315.2-87.1-100.5-6.3-271.8-16-497.4,30.1"/><path class="cls-5" d="M2702.9,299c-143.6-36.5-200.6,149.1-342.6,100.5-155.4-52.5-189.2-283.3-257-393.3-22.1-35.6-43.7-62.7-66-82.7-130.1-117.3-267,13.2-477-27.7-77-14.9-171.6-40.1-266-66-125.6-34.1-241-78.8-316.4-87.2-100.9-11.4-271-20.5-499.1,27.5"/><path class="cls-5" d="M2724.4,298.7c-145.3-38.2-201,153.5-343.9,104.5-153.2-52-185.8-287.4-254.2-397.8-22.3-35.8-44.3-62.7-66.6-82.3C1927-193.8,1787.8-55.3,1577.8-94.7c-77.2-14.6-172.3-39.9-266.5-66.1-124.6-34.6-242.8-75.3-317.7-87.4-101.4-16.5-270.1-25.3-500.7,24.8"/><path class="cls-5" d="M2745.9,298.7c-147.1-39.7-201.4,157.9-345.1,108.5-150.8-52-182.3-292-251.2-402.7-157.2-252.4-308.9-45.6-553.9-90.1-179.8-32.6-455.1-126.3-586.1-154-114-24.1-310.7-31-590.3,44.1"/></g></g><g class="cls-3"><g class="cls-4"><path class="cls-5" d="M2463.1,1380.8c-63.5-16.3-200.8-209.5-262.2-192.7-55.1,15-181.7,61.3-203.9,18.2-48.1-93.1-74-331.4-312.8-218.6-160.1,75.6-163.8,137.1-360.9,11.3-86.6-55.3,2.5-308.9-35.5-444.3-28-99.5-264.3-124.6-358-110.1-56.9,8.8-277.3,6.9-353.3-6.4C469.3,419.5,113.8,265.8,27.9,202.7"/><path class="cls-5" d="M2480.9,1372.7c-61.9-19.2-195.4-209.3-255.8-195.8-32.4,7.3-89.9,25.8-136,32-30.9,4-56.5,1.6-65.7-14.8-49.4-88.3-78.2-317.5-313.5-206.9-159,74.6-166.2,134.6-359.8,11.1-87.1-55.5-4.6-304.8-47-437.5-18.9-59.2-110.5-91.9-199.6-105-61.1-8.8-121.9-9.5-160.4-4.3-28.9,4-96.3,5.1-166.8,4.1-73.3-1.2-148.5-4-187.3-9.4-45.3-6.2-132.7-34.9-227.5-72.3C231.4,322.3,89.8,251.5,39.4,215.3-15,176.2-144.9,107.4-302.6,39.4"/><path class="cls-5" d="M2498.7,1365.8c-60.3-22.2-190.1-209.1-249.4-198.8-32.1,5.7-88.6,22.5-134.4,29.2-30.4,4.5-55.7,2.4-65.2-13.1-50.8-83.4-82.4-303.6-314.2-195-158,73.6-168.5,132.1-358.8,10.6-87.4-55.7-11.8-300.6-58.4-430.8-21.2-59-113.4-91.7-201.1-103.9-60.9-8.4-121.8-9-160.9-4.5-29.8,3.6-97.1,4.2-167.2,3-74-1.5-148.5-3.3-187.6-7.2-45.8-4.6-132.3-30-227.9-66.7-129.8-50.1-271.8-125-322.8-160.7C-4.1,189.5-136.3,123.5-293.5,56.7"/><path class="cls-5" d="M2515.7,1357.7c-58.6-25.3-184.8-209-243-201.8-31.6,3.8-87.1,19-132.7,26.4-29.9,4.8-54.9,3.1-64.7-11.6-52.2-78.6-86.7-289.7-315-183.3-156.9,72.7-170.9,129.6-357.8,10.4-87.8-56.1-19.1-296.6-70-424.1-23.4-58.8-116.1-91.3-202.5-102.8-60.8-8-121.5-8.7-161.3-4.7-30.7,3.2-97.8,3.3-167.7,1.9-74.7-1.7-148.4-2.5-187.8-5-46.4-2.9-131.8-25.3-228.1-60.9-129.4-48-271.9-126.7-323.4-161.9C6.9,202.7-127.7,139.7-284.4,73.9"/><path class="cls-5" d="M2533.7,1350.1c-57-28.2-179.5-208.8-236.5-204.9-31.3,2.2-85.8,15.7-131.1,23.7-29.4,5.2-54.3,3.9-64.2-9.9-53.4-73.8-90.8-275.8-315.6-171.5-155.9,71.6-173.2,127.1-356.8,10.1-88.1-56.3-26.4-292.5-81.4-417.3-25.9-58.7-119.1-90.9-204-101.7-60.7-7.7-121.3-8.4-161.9-4.9-31.5,2.8-98.4,2.3-168.2.9-75.4-1.9-148.4-1.8-188.1-2.8-46.8-1.3-131.2-20.5-228.3-55.3C268.8,370.2,125.9,287.8,73.8,253.1,17.8,215.9-119,155.8-275.3,91"/><path class="cls-5" d="M2551.8,1342.2c-55.3-31.1-174.4-208.7-230.2-207.8-30.8.5-84.4,12.3-129.5,20.9-28.8,5.6-53.4,4.6-63.6-8.2-54.8-68.9-95-261.8-316.4-159.8-154.7,70.7-175.6,124.6-355.7,9.6-88.6-56.4-34-288.4-93-410.5-28.3-58.5-121.9-90.4-205.4-100.5-60.6-7.3-121.3-8-162.4-5.2-32.5,2.3-99.1,1.4-168.7-.3-76-2.1-148.3-1-188.2-.6-47.4.4-130.7-15.9-228.6-49.6C281.2,386.1,138,299.9,85.2,265.8,28.9,229.1-110.4,172-266.2,108.2"/><path class="cls-5" d="M2569.4,1334.5c-53.7-34-169.3-208.6-223.7-210.8-30.7-1.2-83,9-127.9,18.3-28.3,5.9-52.7,5.3-63.1-6.6-56.2-64.1-99.1-247.4-317.1-148-153.5,70.1-177.9,122.1-354.8,9.3-88.9-56.6-41.7-284.3-104.4-403.7-30.7-58.4-124.8-90.1-206.9-99.4-60.5-6.9-121-7.8-162.9-5.5-33.4,1.9-99.9.5-169.2-1.3-76.6-2.3-148.4-.2-188.5,1.5-47.9,2.1-130.1-11.1-228.8-43.9-128.4-42.6-272.2-132.5-325.5-166-56.8-36-198.3-90.3-353.7-153"/><path class="cls-5" d="M2587.4,1327.1c-52-36.9-164.2-208.6-217.3-213.8-30.4-3-81.6,5.5-126.2,15.5-27.9,6.3-52,6.2-62.7-4.9-57.5-59.2-103.2-233.4-317.8-136.1-152.4,69-180.3,119.5-353.7,8.9-89.4-56.8-49.5-280.1-116-396.9-33.2-58.3-127.7-89.7-208.3-98.3-60.4-6.5-120.9-7.4-163.4-5.6-34.3,1.4-100.6-.4-169.8-2.4-77.2-2.3-148.3.5-188.7,3.6-48.4,3.8-129.6-6.5-229.2-38.3C306.4,417.9,162,324.3,108.2,291.3,50.8,255.9-93,204.5-247.8,142.9"/><path class="cls-5" d="M2605.2,1319.2c-50.5-39.8-159.2-208.6-210.9-216.9-30.2-4.8-80.3,2.2-124.6,12.9-27.4,6.5-51.2,6.9-62.1-3.4-58.9-54.4-107.4-219.4-318.5-124.4-151.3,68.2-182.6,117-352.7,8.6-89.7-57.2-57.3-276.1-127.5-390.2-35.7-58.1-130.4-89.3-209.7-97.2a1340.5,1340.5,0,0,0-164-5.9c-35.2,1.1-101.2-1.2-170.2-3.5-77.9-2.5-148.4,1.4-188.9,5.8-48.9,5.5-129.1-1.7-229.5-32.5C318.9,433.5,174,336.2,119.7,303.7c-58-34.9-204-83.7-358.4-143.9"/><path class="cls-5" d="M2622.3,1311.5c-48.7-42.6-154.2-208.8-204.4-219.8-30-6.6-78.9-1.2-123,10.1-26.9,6.9-50.4,7.6-61.6-1.7-60.2-49.5-111.6-205.4-319.2-112.6-150.2,67.2-184.9,114.5-351.6,8.3-90.1-57.4-65.4-271.9-139-383.4-38.3-58-133.3-88.9-211.2-96.1a1555.5,1555.5,0,0,0-164.4-6c-36.2.5-101.9-2.2-170.7-4.6-78.6-2.7-148.4,2.2-189.3,8-49.4,7.1-128.4,2.8-229.7-26.9C331.4,449.2,186.1,348.2,131.1,316.3,72.7,281.9-75.7,236.1-229.6,176.9"/><path class="cls-5" d="M2640.5,1303.4c-47-45.6-149.2-209-198-222.9-29.8-8.4-77.5-4.6-121.3,7.4-26.5,7.2-49.7,8.4-61.2,0-61.5-44.7-115.7-191.4-320-100.8-149,66.3-187.2,112-350.6,8-90.5-57.6-73.4-267.8-150.4-376.6-40.9-57.8-136.2-88.5-212.7-95-60.1-5.1-120.3-6.5-164.9-6.2-37,.1-102.7-3.2-171.2-5.7-79.3-2.9-148.4,2.9-189.4,10.2-49.9,8.9-127.9,7.6-230-21.2C343.9,465,198,360.3,142.6,328.9,83.7,295.2-67.1,252.3-220.5,194.1"/><path class="cls-5" d="M2658.2,1295.7c-45.5-48.4-144.3-209.3-191.6-225.9-29.7-10.5-76.1-8.1-119.8,4.7-25.8,7.5-48.8,9-60.6,1.6-62.9-39.9-119.9-177.6-320.7-89-147.9,65.2-189.5,109.5-349.5,7.5-90.9-57.8-81.6-263.4-161.9-369.8-43.6-57.7-139.1-87.9-214.1-93.9-60.1-4.7-120.3-6.1-165.6-6.6-37.8-.3-103.3-4-171.7-6.7-79.9-3.2-148.3,3.7-189.6,12.4-50.6,10.5-127.3,12.1-230.3-15.6C356.4,480.4,210,372.2,154.1,341.3,94.6,308.2-58.4,268.2-211.4,211.1"/><path class="cls-5" d="M2675.7,1288.1c-43.8-51.4-139.4-209.8-185.2-229-29.5-12.3-74.7-11.3-118.1,2-25.4,7.8-48.2,9.9-60.1,3.4-64.2-35.2-124.1-163.7-321.4-77.3-146.8,64.3-191.9,107-348.5,7.2-91.2-58-89.7-259.2-173.4-363.1-46.3-57.5-141.9-87.5-215.5-92.8-59.9-4.2-120.1-5.8-166-6.7-38.9-.8-104-5.1-172.2-7.9-80.6-3.3-148.4,4.6-189.9,14.6-51,12.2-126.7,16.7-230.5-9.9C369,496.3,222,384.4,165.5,354.1c-59.9-32.4-215.3-69.5-367.7-125.6"/><path class="cls-5" d="M2693.8,1280.5c-42.2-54.2-134.4-210.3-178.7-232-29.4-14.3-73.5-14.8-116.5-.8-24.9,8.1-47.4,10.6-59.6,4.9-65.6-30.3-128.3-149.7-322.1-65.5-145.8,63.4-194.3,104.5-347.5,6.9-91.7-58.3-98.1-254.8-184.9-356.3-49-57.3-144.9-87.2-217-91.8-59.9-3.7-120-5.5-166.6-6.9-39.7-1.3-104.7-6-172.7-8.9-81.1-3.6-148.3,5.4-190.1,16.7-51.5,14-126.2,21.3-230.8-4.2C381.7,511.9,234.2,396.5,177.2,366.7c-60.5-32-218.3-66.2-370.3-121.2"/><path class="cls-5" d="M2711.4,1272.5c-40.6-57-129.4-210.8-172.4-234.9-29.1-16.3-72-18.2-114.8-3.5-24.4,8.4-46.7,11.4-59.1,6.6-66.9-25.5-132.5-135.8-322.9-53.8-144.7,62.4-196.7,102-346.5,6.6-92-58.5-106.4-250.4-196.4-349.6-51.7-56.9-147.7-86.6-218.4-90.5-59.7-3.4-119.8-5.3-167.1-7.2-40.6-1.7-105.4-6.9-173.1-10.1-81.9-3.7-148.4,6.3-190.4,18.9-52,15.8-125.5,25.9-231.1,1.5-125-29-273.1-148.1-330.7-177.4-61-31.3-221.1-62.6-372.6-116.6"/><path class="cls-5" d="M2728.9,1264.6c-38.9-59.9-124.4-211.4-165.9-237.9-29-18.5-70.7-21.7-113.2-6.3-24,8.8-45.9,12.1-58.6,8.3-68.2-20.7-136.7-121.8-323.5-42-143.6,61.4-199,99.5-345.4,6.2-92.4-58.8-114.8-246-207.9-342.8-54.6-56.7-150.6-86.1-219.9-89.4-59.6-3-119.6-5-167.6-7.4-41.5-2.1-106.1-7.9-173.6-11.1-82.6-4-148.4,7.1-190.7,21.1-52.5,17.4-124.9,30.4-231.3,7.1C406.6,543,258.1,420.3,199.8,391.5c-61.5-30.7-223.9-59-375-112.1"/><path class="cls-5" d="M2747,1257c-37.3-62.7-119.3-212.2-159.5-241-28.7-20.6-69.2-25.1-111.5-8.9-23.5,8.9-45.2,12.8-58.1,9.9-69.6-15.8-140.9-107.9-324.2-30.2-142.5,60.4-201.4,97-344.4,5.9-92.8-59-123.2-241.5-219.4-336-57.4-56.4-153.5-85.7-221.3-88.4-59.5-2.4-119.4-4.7-168.1-7.6-42.5-2.6-106.8-8.8-174.2-12.1-83.2-4.2-148.4,7.9-190.8,23.2-53,19.2-124.4,35.1-231.6,12.9-124.2-25.8-273.5-152-332.2-180.2-62-30.2-226.8-55.7-377.3-107.5"/><path class="cls-5" d="M2764.7,1249.7c-35.7-65.6-114.3-212.9-153.1-244-28.6-22.8-67.9-28.7-110-11.7-23,9.3-44.3,13.6-57.6,11.6-70.9-11-145-93.9-324.9-18.4-141.4,59.5-203.7,94.5-343.4,5.6-93.2-59.3-131.6-236.9-230.9-329.3-60.2-56-156.4-85.1-222.8-87.2-59.4-1.9-119.3-4.4-168.6-7.9-43.3-3-107.5-9.7-174.6-13.3-83.9-4.5-148.4,8.8-191.1,25.5-53.6,21-123.7,39.5-231.8,18.5C432,574.9,282.3,445.1,223,417.4c-62.4-29.6-229.6-52.2-379.6-103C-346.1,250.2-542.4,22.4-716-36.7"/><path class="cls-5" d="M2782.4,1241.7c-34.1-68.3-109.1-213.7-146.7-247-28.2-25-66.5-32.1-108.3-14.4-22.5,9.5-43.6,14.4-57.1,13.2-72.3-6.2-149.2-80-325.6-6.6-140.3,58.5-206.1,92-342.4,5.1-93.5-59.4-140.1-232.2-242.3-322.4-63.1-55.6-159.2-84.6-224.2-86.2-59.3-1.5-119.1-4.1-169.2-8.1-44.2-3.6-108.1-10.7-175.1-14.3-84.5-4.7-148.4,9.6-191.3,27.6C746.1,611.3,677,632.8,568,612.7,444.6,590.4,294.3,457.1,234.5,429.9c-63-28.9-232.5-48.5-382-98.4C-337.2,268.4-531.6,31.9-703.6-29.9"/><path class="cls-5" d="M2660,983.8c-27.9-27.3-65.1-35.6-106.7-17.1-22,9.8-42.9,15.1-56.5,14.8-73.7-1.4-153.5-66.2-326.4,5.2-139.3,57.5-208.4,89.4-341.3,4.8-94-59.7-148.7-227.6-253.9-315.6-65.9-55.2-162-84.1-225.6-85.1-59.2-.9-118.9-3.8-169.7-8.3-45.1-4-108.8-11.6-175.6-15.4C919.2,562.2,856,577.6,812.8,597c-54.5,24.4-122.5,48.6-232.4,29.8C457.4,605.7,306.6,469,246.2,442.3c-63.5-28.4-235.3-44.9-384.4-93.8C-328.1,286.3-520.6,41.2-691.1-23.4"/><path class="cls-5" d="M2684.1,973.3c-27.6-29.6-63.7-39.2-104.9-19.9-21.6,10-42.2,15.9-56.1,16.5-74.9,3.6-157.7-52.3-327,17-138.2,56.5-210.7,86.9-340.4,4.5-94.3-59.9-157.1-222.9-265.3-308.9-68.8-54.6-165-83.4-227.1-83.9-59.1-.4-118.8-3.5-170.2-8.5-46-4.5-109.6-12.5-176.1-16.5-85.8-5.1-148.4,11.3-191.8,31.9-55.1,26.2-121.9,53.1-232.6,35.5-122.5-19.5-274-159.7-334.9-185.8-64-27.8-238.2-41.6-386.7-89.3C-319.5,304.8-510.1,51-679-16.4"/><path class="cls-5" d="M2708.2,962.7c-27.1-31.8-62.4-42.7-103.3-22.5-21.1,10.3-41.4,16.6-55.6,18.1-76.3,8.4-161.9-38.3-327.8,28.8-137.1,55.4-213.1,84.4-339.3,4.1-94.7-60.1-165.7-218.1-276.9-302.1-71.7-54.1-167.8-82.9-228.5-82.8a1649.6,1649.6,0,0,1-170.7-8.8c-47-4.9-110.2-13.5-176.5-17.5-86.5-5.4-148.4,12.2-192,34.1-55.6,28-121.4,57.6-233,41.2C482.5,637.4,330.6,493.7,269.1,468c-64.5-27.1-241-38-389.1-84.7C-310.3,323.2-499.3,60.8-666.4-9.4"/><path class="cls-5" d="M2732.5,952c-26.7-34.2-61-46.2-101.7-25.3-20.6,10.6-40.6,17.3-55.1,19.8-77.6,13.2-166.1-24.4-328.4,40.5-136.1,54.5-215.4,81.9-338.3,3.8-95.1-60.4-174.2-213.3-288.3-295.4-74.6-53.7-170.7-82.4-230.1-81.7a1439.5,1439.5,0,0,1-171.2-9c-47.8-5.4-110.9-14.4-177.1-18.6C955.2,580.6,894,599.2,850,622.4c-56,29.8-120.6,62.1-233.2,46.9C495.2,652.8,342.6,505.7,280.6,480.5c-65-26.5-243.9-34.4-391.4-80.1C-301.7,341.2-488.7,70.3-654.3-2.8"/><path class="cls-5" d="M2756.5,940.6c-26.3-36.4-59.7-49.7-100.1-28.1-20.1,10.8-39.8,18.1-54.5,21.4-79,18-170.3-10.6-329.1,52.3-135,53.4-217.8,79.4-337.3,3.4C1840.1,929,1752.9,781.1,1635.7,701c-77.5-53-173.6-81.8-231.5-80.5s-118.3-2.9-171.7-9.3c-48.7-6-111.7-15.4-177.6-19.8-87.8-5.8-148.3,13.9-192.5,38.5-56.6,31.6-120.1,66.6-233.5,52.5C507.6,668.2,354.5,517.7,291.9,493c-65.5-25.9-246.7-30.8-393.8-75.5C-292.8,359.5-478,80-641.9,4"/><path class="cls-5" d="M2780.9,930.4c-25.7-38.7-58.4-53.3-98.5-30.8-19.6,11-39.1,18.9-54,23-80.4,22.9-174.6,3.3-330,64.1-133.9,52.4-220,76.9-336.2,3-95.9-60.8-191.2-203.4-311.3-281.8-80.5-52.5-176.5-81.2-233-79.5-58.8,1.8-118.1-2.5-172.2-9.5-49.6-6.4-112.3-16.3-178.1-20.8-88.4-6-148.3,14.7-192.7,40.7-57.1,33.3-119.6,71-233.8,58.2C520.3,683.6,366.7,529.6,303.5,505.5c-66-25.4-249.5-27.4-396.1-71C-283.9,377.6-467.3,89.7-629.5,10.7"/><path class="cls-5" d="M2708.3,886.3a302.8,302.8,0,0,1-53.6,24.8c-81.7,27.6-178.7,17.1-330.6,75.8-132.7,51.4-222.4,74.4-335.2,2.7-96.2-61-199.7-198.5-322.8-275-83.3-51.8-179.3-80.6-234.4-78.4-58.7,2.4-117.9-2.2-172.8-9.7-50.5-6.9-113-17.2-178.5-21.8-89.1-6.3-148.3,15.6-193,42.9-57.5,35-118.8,75.4-234.1,63.8C532.8,699.2,378.5,541.8,314.8,518.3c-66.4-24.7-252.4-23.8-398.5-66.5-191.4-55.9-373-352.4-533.5-434.3"/><path class="cls-5" d="M2733.7,872.6a350.1,350.1,0,0,1-53.1,26.4c-83,32.4-183,30.9-331.4,87.6-131.7,50.3-224.7,71.9-334.1,2.4-96.6-61.2-208.3-193.6-334.3-268.3-86.3-51.1-182.2-79.9-235.8-77.3-58.7,2.9-117.9-2-173.3-9.9-51.5-7.4-113.7-18.2-179.1-23-89.7-6.4-148.2,16.5-193.2,45.1-58,36.9-118.3,79.8-234.3,69.5-119.9-10.6-274.7-171.4-339-194.4-67-24.2-255.2-20.2-400.8-61.9C-266.3,413.9-446.3,109-605,24.1"/><path class="cls-5" d="M2759.2,859.2a388.6,388.6,0,0,1-52.5,28c-84.4,37.3-187.2,44.7-332.1,99.4-130.6,49.3-227.1,69.4-333.1,2-97-61.6-216.9-188.6-345.8-261.5-89.1-50.4-185.1-79.3-237.2-76.2-58.6,3.6-117.7-1.6-173.8-10.1-52.3-7.8-114.3-19.3-179.5-24-90.4-7-148.2,17.3-193.4,47.2-58.5,38.6-117.8,84.2-234.6,75.2C557.8,730,402.4,565.9,337.5,543.3,270,519.8,79.4,526.6-65.6,486.1-257.5,432.2-435.7,119-592.6,31"/><path class="cls-5" d="M2785.6,845.6a477.6,477.6,0,0,1-52,29.7c-85.7,42.1-191.4,58.6-332.8,111.2-129.6,48.2-229.5,66.9-332.1,1.7-97.4-61.8-225.3-183.6-357.3-254.7-92.1-49.7-187.9-78.7-238.6-75.1-58.5,4.2-117.5-1.4-174.4-10.3-53.2-8.3-115.1-20.2-180-25-91-7.2-148.2,18.1-193.6,49.3-59,40.4-117,88.6-234.8,80.9S415,578,349.6,556.1c-68-23-261-12.8-405.6-52.8C-248.5,451-424.9,129-580.1,37.9"/><path class="cls-5" d="M2759.7,864.1c-87.1,47-195.7,72.4-333.5,123-128.5,47.2-231.9,64.4-331.1,1.4-97.7-62-233.7-178.4-368.7-247.9-95-49-190.8-78.1-240.1-74-58.4,4.8-117.3-1.3-174.8-10.7-54.2-8.8-115.8-21.2-180.6-26.2-91.7-7.4-148.1,19.1-193.9,51.6-59.5,42.1-116.5,92.9-235.2,86.6s-275-177.2-341-198.7C292.4,546.8,96.9,559.9-47,521-239.5,469.7-414.2,139.3-567.6,45.1"/><path class="cls-5" d="M2786.1,851.9c-88.5,51.8-200.1,86.2-334.4,134.7-127.5,46-234.2,61.9-330.1.9-98.2-62.1-242.2-173.3-380.3-241.1-97.8-48.1-193.7-77.4-241.5-72.8-58.3,5.5-117.2-1-175.4-10.9-55-9.4-116.5-22.1-181.1-27.2-92.3-7.6-148.1,19.9-194.1,53.7-59.9,43.9-115.8,97.3-235.3,92.3S438.7,602.3,372.2,581.4c-69-21.8-266.7-5.7-410.2-43.6C-230.8,487.5-403.8,148.9-555.3,51.4"/><path class="cls-5" d="M2477.7,986.4c-126.5,45-236.5,59.4-329.1.6-98.5-62.4-250.6-168.2-391.7-234.3-100.9-47.3-196.6-76.7-243-71.8-58.1,6.1-117-.9-175.9-11.1-55.9-9.9-117.1-23.1-181.5-28.3-93-7.8-148.1,20.8-194.4,56C901.7,743.2,846.8,799,726.5,795.3c-117.7-3.5-275.4-181.1-342.4-201.5-69.9-20.9-270-1.9-413-38.9C-221.9,505.7-393.4,158.8-543,58.2"/><path class="cls-5" d="M2502.9,986.5c-125.5,43.5-238.9,56.9-328,.3-98.9-62.7-259.1-163.1-403.3-227.7-103.7-46.4-199.4-75.9-244.4-70.6-58,6.9-116.8-.5-176.4-11.3-56.9-10.4-117.9-24-182.1-29.3-93.6-8-148,21.8-194.5,58.1-60.9,47.6-114.8,105.8-236,103.5-117.3-2.2-275.5-183-343.1-202.8-70-20.6-272.4,1.3-414.9-34.6C-213,523.8-383,168.8-530.6,65"/><path class="cls-5" d="M2528.6,986.3c-124.4,42.6-241.2,54.4-327,0-99.3-62.9-267.5-157.9-414.7-220.9-106.6-45.6-202.4-75.3-246-69.5-57.9,7.6-116.6-.2-176.9-11.5-57.7-10.8-118.6-24.8-182.5-30.5-94.3-8.2-148,22.7-194.9,60.3-61.2,49.3-114,109.8-236.2,109.2-116.8-1-275.5-185-343.7-204.3-70.4-20-275.3,4.8-417.2-30C-204,541.9-372.5,178.7-518.1,71.6"/><path class="cls-5" d="M2228.1,986.1c-172.3-109.2-573.5-297.2-673.6-282.6-113.3,16.6-230.3-31.6-360.5-43.3C974.6,640.6,979.3,836.7,762.5,837.6c-116.4.5-275.7-186.9-344.4-205.7-71-19.4-278,8.4-419.6-25.4C-195.2,560.2-362.2,189-505.9,78.6"/></g></g></svg>