<svg width="90" height="90" viewBox="0 0 90 90" fill="none" xmlns="http://www.w3.org/2000/svg">
<path d="M2.20001 74.6C2.20001 74.7 3.20001 79.4 3.20001 79.4L12.1 80.5L11.4 87.1L20.3 87.9L18.2 80.3L25.6 80.4L29 78.6C29 78.6 29.3 74 28.8 74.2C28.3 74.4 2.20001 74.6 2.20001 74.6Z" fill="#004976"/>
<path d="M37.7 81.9C37.7 82.3 37.7 85.8 37.7 85.8L40.2 87.5L46.5 88L51.3 86.9L52.6 81.9H37.7Z" fill="#004976"/>
<path d="M62.8 76L60.8 82.9L62.5 87.1L71.4 88.1L85.4 87.6L88 85.7L87.1 80.1L86 76H62.8Z" fill="#004976"/>
<path d="M38.7 53.8V41.1H36.7V53.9C36.7 55 35.9 55.8 34.8 55.8H18.5C16.2 55.8 14.6 57.5 14.6 59.7V61.6H5.30002C3.00002 61.6 1.40002 63.3 1.40002 65.5V77.3C1.40002 79.6 3.10002 81.2 5.30002 81.2H11.4L10.3 86.5H7.30002V88.5H24V86.5H20.9L19.8 81.2H25.9C28.2 81.2 29.8 79.5 29.8 77.3V65.6C29.8 63.3 28.1 61.7 25.9 61.7H16.6V59.8C16.6 58.7 17.4 57.9 18.5 57.9H34.7C37 57.8 38.7 56.1 38.7 53.8ZM12.4 86.6L13.5 81.3H17.8L18.9 86.6H12.4ZM27.8 77.3C27.8 78.4 27 79.2 25.9 79.2H5.30002C4.20002 79.2 3.40002 78.4 3.40002 77.3V75.4H27.8V77.3V77.3ZM25.9 63.7C27 63.7 27.8 64.5 27.8 65.6V73.4H3.40002V65.6C3.40002 64.5 4.20002 63.7 5.30002 63.7H25.9V63.7Z" fill="black"/>
<path d="M64.1 88.6H84.7C87 88.6 88.6 86.9 88.6 84.7V81.8L87.1 75.7V65.6C87.1 63.3 85.4 61.7 83.2 61.7H75.4V59.8C75.4 57.5 73.7 55.9 71.5 55.9H55.3C54.2 55.9 53.4 55.1 53.4 54V41.1H51.4V53.9C51.4 56.2 53.1 57.8 55.3 57.8H71.5C72.6 57.8 73.4 58.6 73.4 59.7V61.6H65.6C63.3 61.6 61.7 63.3 61.7 65.5V75.8L60.2 81.5V84.7C60.2 86.9 61.9 88.6 64.1 88.6ZM63.6 65.6C63.6 64.5 64.4 63.7 65.5 63.7H83.1C84.2 63.7 85 64.5 85 65.6V74.9H63.6V65.6ZM63.5 76.9H85.4L86.4 80.8H62.5L63.5 76.9ZM62.2 82.8H86.6V84.7C86.6 85.8 85.8 86.6 84.7 86.6H64.1C63 86.6 62.2 85.8 62.2 84.7V82.8V82.8Z" fill="black"/>
<path d="M36.6 65.6V84.7C36.6 87 38.3 88.6 40.5 88.6H49.3C51.6 88.6 53.2 86.9 53.2 84.7V65.6C53.2 63.3 51.5 61.7 49.3 61.7H46V41.1H44V61.7H40.6C38.3 61.6 36.6 63.3 36.6 65.6ZM51.3 84.7C51.3 85.8 50.5 86.6 49.4 86.6H40.6C39.5 86.6 38.7 85.8 38.7 84.7V82.8H51.4V84.7H51.3ZM49.4 63.7C50.5 63.7 51.3 64.5 51.3 65.6V80.8H38.7V65.6C38.7 64.5 39.5 63.7 40.6 63.7H49.4V63.7Z" fill="black"/>
<path d="M82.8 30.3C82.8 20.8 75.1 13.1 65.6 13.1H65L64.9 12.9C58.5 1.99999 44.4 -1.90001 33.5 4.39999C29.9 6.49999 26.9 9.49999 25 12.9L24.9 13.1H24.3C14.8 13.1 7.09998 20.8 7.09998 30.3C7.09998 39.8 14.8 47.5 24.3 47.5H32.7V45.5H24.3C15.9 45.5 9.09998 38.7 9.09998 30.3C9.09998 22.4 15.1 15.9 23 15.1L23.7 15L23.4 15.7C22.4 18.4 21.9 21.2 21.8 23.9H23.8C24 12.5 33.4 3.29999 44.8 3.29999C56.2 3.29999 65.6 12.5 65.8 23.9H67.8C67.7 21.1 67.1 18.3 66.1 15.7L66 15.1L66.8 15.2C75.2 16 81.3 23.3 80.6 31.6C80 39.5 73.5 45.5 65.6 45.5H57.2V47.5H65.6C75 47.5 82.8 39.8 82.8 30.3Z" fill="black"/>
</svg>
